<svg width="75" height="52" viewBox="0 0 75 52" fill="none" xmlns="http://www.w3.org/2000/svg">
<path d="M60.2596 27.3811L60.2153 27.4128L60.173 27.4473C59.5762 27.9354 58.5581 28.4524 57.0845 28.9378C55.6363 29.4147 53.8596 29.8255 51.8395 30.1602C47.8006 30.8294 42.9108 31.1747 37.9809 31.181C33.0511 31.1873 28.1348 30.8546 24.0428 30.1882C21.9964 29.855 20.1853 29.443 18.6957 28.9604C17.2351 28.4873 16.1809 27.977 15.5174 27.4778C14.0825 26.0537 12.6572 23.5409 11.6051 20.4082C10.6453 17.5505 10.0432 14.3158 9.99687 11.1926C20.7847 14.3599 29.4409 15.8583 38.0287 15.7961C46.5942 15.7341 54.9963 14.1199 65.2722 11.1789C65.1784 14.1184 64.5143 17.6378 63.5577 20.7357C63.0278 22.4518 62.423 23.9897 61.8065 25.1914C61.159 26.4532 60.6027 27.1355 60.2596 27.3811Z" fill="white" stroke="#383434" stroke-width="3.39227"/>
<path d="M64.8642 17.6816C63.4159 19.32 54.4794 21.8084 48.2248 22.9865C47.91 23.0458 47.9353 23.4275 48.2556 23.4211C53.5299 23.3167 61.3023 21.8974 61.3023 23.3608C62.9306 21.6417 64.6946 19.0119 64.8642 17.6816Z" fill="#383434"/>
<path d="M10.4774 17.6816C11.9226 19.3164 19.8879 21.7975 25.9302 22.9788C26.2446 23.0402 26.2188 23.4271 25.8985 23.4199C20.8673 23.3059 14.0393 21.903 14.0393 23.3608C12.411 21.6417 10.647 19.0119 10.4774 17.6816Z" fill="#383434"/>
<path d="M6.82259 8.9008C6.9464 8.23304 7.61894 7.78137 8.36106 7.86757L12.3102 8.32629C13.5899 8.47493 14.052 9.97224 13.03 10.6586L8.42199 13.7533C7.40003 14.4396 5.95025 13.6056 6.16374 12.4542L6.82259 8.9008Z" fill="#383434"/>
<path d="M66.9676 7.44708C67.6812 7.36469 68.3329 7.78168 68.4849 8.41802L69.2795 11.744C69.5558 12.9 68.1119 13.8002 67.0605 13.1274L62.5359 10.2321C61.4845 9.55928 61.9411 8.02738 63.2376 7.8777L66.9676 7.44708Z" fill="#383434"/>
<path fill-rule="evenodd" clip-rule="evenodd" d="M2.86719 37.1841C2.86719 40.9349 8.92659 48.7021 13.813 49.4001C18.6994 50.0982 47.2625 49.691 62.0963 49.4001C66.1683 47.3641 71.8008 41.2698 71.8008 37.1841V8.8988C63.4284 6.67746 44.6658 2.35645 44.6658 2.35645C39.7045 5.20433 37.0254 5.87412 30.7938 2.35645L2.86719 8.8988V37.1841ZM11.7072 19.527L15.6987 35.6948L29.3111 38.1842C35.348 34.9819 43.3056 34.9819 49.3522 38.1842L60.8065 35.6948C62.2454 29.3239 64.3224 17.7855 64.3224 17.7855C62.77 13.367 50.6979 14.0431 42.9866 14.4749C41.118 14.5796 39.5054 14.6699 38.3606 14.6699C37.4856 14.6699 36.3118 14.6282 34.9428 14.5797C27.1295 14.3024 12.9588 13.7997 11.7072 19.527Z" fill="#6A4C1E"/>
<path d="M62.0963 49.4001L62.1347 51.3598C62.4259 51.3541 62.7123 51.2835 62.9728 51.1532L62.0963 49.4001ZM71.8008 8.8988H73.7608C73.7608 8.00989 73.1626 7.23228 72.3034 7.00433L71.8008 8.8988ZM44.6658 2.35645L45.1056 0.44642C44.6241 0.335531 44.1185 0.41059 43.69 0.656573L44.6658 2.35645ZM30.7938 2.35645L31.7573 0.649594C31.3291 0.407842 30.8256 0.335917 30.3468 0.448091L30.7938 2.35645ZM2.86719 8.8988L2.42012 6.99045C1.53385 7.19807 0.907165 7.98854 0.907165 8.8988H2.86719ZM15.6987 35.6948L13.7958 36.1646C13.9807 36.9134 14.5874 37.4841 15.3461 37.6229L15.6987 35.6948ZM11.7072 19.527L9.79238 19.1085C9.72833 19.4016 9.73242 19.7055 9.80432 19.9968L11.7072 19.527ZM29.3111 38.1842L28.9585 40.1123C29.3922 40.1916 29.84 40.1223 30.2296 39.9157L29.3111 38.1842ZM49.3522 38.1842L48.4349 39.9163C48.8438 40.1329 49.3162 40.1978 49.7685 40.0995L49.3522 38.1842ZM60.8065 35.6948L61.2227 37.6101C61.9672 37.4483 62.5505 36.8698 62.7183 36.1266L60.8065 35.6948ZM64.3224 17.7855L66.2514 18.1327C66.3114 17.7991 66.2839 17.4556 66.1716 17.1358L64.3224 17.7855ZM42.9866 14.4749L42.877 12.518L42.9866 14.4749ZM34.9428 14.5797L35.0123 12.6209L34.9428 14.5797ZM14.0902 47.4598C13.2879 47.3452 12.2855 46.9084 11.1706 46.1224C10.0745 45.3496 8.97793 44.3154 8.00039 43.1666C7.02314 42.0183 6.20309 40.8004 5.63722 39.6882C5.04825 38.5307 4.82721 37.6687 4.82721 37.1841H0.907165C0.907165 38.5749 1.44355 40.0904 2.14342 41.4659C2.86638 42.8868 3.86659 44.3576 5.01499 45.7071C6.1631 47.0563 7.49754 48.3292 8.91189 49.3263C10.3075 50.3102 11.8949 51.106 13.5358 51.3405L14.0902 47.4598ZM62.0578 47.4405C54.6456 47.5858 43.8067 47.7602 34.214 47.811C29.4166 47.8364 24.94 47.8309 21.3629 47.7757C17.7297 47.7197 15.1637 47.6132 14.0902 47.4598L13.5358 51.3405C14.9055 51.5361 17.7423 51.6404 21.3025 51.6953C24.9189 51.7511 29.4263 51.7565 34.2348 51.731C43.8537 51.68 54.7132 51.5053 62.1347 51.3598L62.0578 47.4405ZM69.8408 37.1841C69.8408 37.7842 69.6239 38.6188 69.1057 39.6503C68.5979 40.6609 67.86 41.7432 66.973 42.8022C65.1764 44.9471 62.9521 46.7808 61.2197 47.647L62.9728 51.1532C65.3124 49.9834 67.9405 47.752 69.9781 45.3193C71.0082 44.0895 71.9329 42.7549 72.6085 41.4101C73.2736 40.0861 73.7608 38.6269 73.7608 37.1841H69.8408ZM69.8408 8.8988V37.1841H73.7608V8.8988H69.8408ZM44.6658 2.35645C44.2259 4.26647 44.2259 4.26648 44.2261 4.26651C44.2262 4.26655 44.2264 4.26659 44.2267 4.26666C44.2272 4.26678 44.2281 4.26698 44.2292 4.26723C44.2314 4.26775 44.2348 4.26853 44.2393 4.26956C44.2483 4.27163 44.2617 4.27473 44.2795 4.27883C44.3151 4.28704 44.3681 4.29927 44.4377 4.31533C44.5769 4.34744 44.7822 4.39486 45.0465 4.45603C45.5752 4.57835 46.34 4.75563 47.284 4.97532C49.1721 5.41473 51.7766 6.0237 54.6422 6.70195C60.3818 8.06044 67.1411 9.69033 71.2981 10.7933L72.3034 7.00433C68.0881 5.88593 61.2799 4.24465 55.5451 2.8873C52.6735 2.20763 50.064 1.5975 48.1725 1.1573C47.2267 0.937193 46.4603 0.759537 45.9302 0.63688C45.6651 0.575551 45.4591 0.527969 45.3193 0.495704C45.2494 0.479571 45.1961 0.467267 45.1602 0.458988C45.1422 0.454848 45.1286 0.451715 45.1195 0.449612C45.1149 0.44856 45.1115 0.447767 45.1092 0.447234C45.108 0.446967 45.1071 0.446766 45.1066 0.44663C45.1063 0.446562 45.106 0.44651 45.1059 0.446476C45.1057 0.44644 45.1056 0.44642 44.6658 2.35645ZM29.8303 4.0633C33.0649 5.88919 35.6771 6.8075 38.2854 6.70195C40.869 6.59739 43.1397 5.49242 45.6415 4.05632L43.69 0.656573C41.2305 2.06836 39.681 2.72222 38.1269 2.78511C36.5975 2.847 34.7543 2.34137 31.7573 0.649594L29.8303 4.0633ZM3.31426 10.8072L31.2409 4.2648L30.3468 0.448091L2.42012 6.99045L3.31426 10.8072ZM4.82721 37.1841V8.8988H0.907165V37.1841H4.82721ZM17.6016 35.225L13.6101 19.0572L9.80432 19.9968L13.7958 36.1646L17.6016 35.225ZM29.6637 36.2562L16.0513 33.7668L15.3461 37.6229L28.9585 40.1123L29.6637 36.2562ZM50.2696 36.4521C43.6496 32.9461 35.0044 32.9454 28.3926 36.4527L30.2296 39.9157C35.6916 37.0183 42.9616 37.0176 48.4349 39.9163L50.2696 36.4521ZM60.3902 33.7795L48.936 36.2689L49.7685 40.0995L61.2227 37.6101L60.3902 33.7795ZM64.3224 17.7855C62.3933 17.4383 62.3933 17.4383 62.3933 17.4383C62.3933 17.4384 62.3933 17.4385 62.3933 17.4387C62.3932 17.439 62.3931 17.4395 62.393 17.4402C62.3927 17.4415 62.3924 17.4435 62.3919 17.4463C62.3909 17.4517 62.3894 17.4599 62.3875 17.4708C62.3835 17.4926 62.3777 17.5251 62.3699 17.5678C62.3545 17.6534 62.3316 17.7799 62.3019 17.9432C62.2425 18.27 62.156 18.7443 62.0476 19.3335C61.831 20.512 61.5271 22.1495 61.1784 23.9853C60.4796 27.665 59.606 32.1133 58.8946 35.263L62.7183 36.1266C63.4459 32.9053 64.3303 28.399 65.0296 24.7168C65.38 22.8717 65.6853 21.2264 65.9031 20.0423C66.0119 19.4503 66.0989 18.9733 66.1587 18.6442C66.1886 18.4796 66.2118 18.352 66.2274 18.2654C66.2352 18.2221 66.2412 18.189 66.2452 18.1668C66.2472 18.1556 66.2488 18.1472 66.2498 18.1415C66.2503 18.1386 66.2507 18.1365 66.251 18.135C66.2511 18.1343 66.2512 18.1337 66.2513 18.1333C66.2513 18.1331 66.2513 18.133 66.2513 18.1329C66.2514 18.1328 66.2514 18.1327 64.3224 17.7855ZM43.0962 16.4319C46.9831 16.2142 51.7906 15.9483 55.81 16.2653C57.8262 16.4243 59.511 16.7217 60.7302 17.1787C61.9905 17.6512 62.3705 18.143 62.4731 18.4352L66.1716 17.1358C65.498 15.2188 63.7869 14.1381 62.1061 13.5081C60.3842 12.8627 58.2779 12.5277 56.1182 12.3574C51.7856 12.0157 46.7015 12.3038 42.877 12.518L43.0962 16.4319ZM38.3606 16.6299C39.5736 16.6299 41.252 16.5351 43.0962 16.4319L42.877 12.518C40.9839 12.624 39.4372 12.7098 38.3606 12.7098V16.6299ZM34.8733 16.5384C36.2279 16.5865 37.4426 16.6299 38.3606 16.6299V12.7098C37.5286 12.7098 36.3957 12.6699 35.0123 12.6209L34.8733 16.5384ZM13.6221 19.9454C13.7488 19.3655 14.234 18.7062 15.5913 18.0771C16.9427 17.4507 18.8379 17.0162 21.0956 16.748C25.5945 16.2134 30.935 16.3987 34.8733 16.5384L35.0123 12.6209C31.1373 12.4834 25.4857 12.2787 20.6331 12.8553C18.215 13.1426 15.8445 13.639 13.9428 14.5205C12.0469 15.3992 10.2914 16.8248 9.79238 19.1085L13.6221 19.9454Z" fill="#3B2607"/>
</svg>
