<svg width="147" height="107" viewBox="0 0 147 107" fill="none" xmlns="http://www.w3.org/2000/svg">
<path fill-rule="evenodd" clip-rule="evenodd" d="M53.8126 103.012C61.8586 103.967 93.5937 105.028 102.096 103.012C110.598 100.997 139.451 87.064 139.451 87.064C138.232 75.5713 142.023 39.0262 143.951 20.4493C144.574 14.4357 145.003 10.305 145.003 9.51668C145.003 6.93775 142.496 4.02476 141.242 2.89062L132.606 79.2855L111.8 87.064V66.5111C103.428 64.2897 84.1629 63.6016 84.1629 63.6016C79.2016 66.4495 76.5225 67.1193 70.2909 63.6016L42.8668 66.5111V87.064L15.5191 81.1536L6.15945 2.89062C4.78208 3.80947 2.02734 6.42105 2.02734 9.51668C2.02734 10.4199 2.54816 15.8442 3.28589 23.5277C5.07675 42.1795 8.14584 74.1442 8.14584 87.064C8.14584 87.064 45.7666 102.058 53.8126 103.012ZM51.7066 74.9535V88.6296L69.3105 93.569L79.0641 90.947L89.3517 93.569L104.322 88.6296V73.1803C100.636 71.3373 94.7296 72.8473 88.7895 74.3659C84.7712 75.3932 80.7374 76.4245 77.3647 76.4245C73.5773 76.4245 69.7801 75.6132 66.1982 74.8479C60.5326 73.6374 55.4054 72.5419 51.7066 74.9535Z" fill="#6A4C1E"/>
<path d="M139.451 87.064L140.303 88.829C141.048 88.4692 141.487 87.6802 141.4 86.8574L139.451 87.064ZM143.951 20.4493L142.001 20.2471L143.951 20.4493ZM141.242 2.89062L142.557 1.43713C142.012 0.943964 141.236 0.797292 140.549 1.05723C139.861 1.31717 139.377 1.94001 139.294 2.67047L141.242 2.89062ZM132.606 79.2855L133.293 81.1214C133.984 80.8631 134.471 80.2387 134.554 79.5056L132.606 79.2855ZM111.8 87.064H109.84C109.84 87.7065 110.155 88.3082 110.683 88.6744C111.211 89.0407 111.885 89.1249 112.487 88.8999L111.8 87.064ZM111.8 66.5111H113.76C113.76 65.6222 113.162 64.8446 112.303 64.6166L111.8 66.5111ZM84.1629 63.6016L84.2328 61.6428C83.8669 61.6298 83.5047 61.7195 83.1871 61.9017L84.1629 63.6016ZM70.2909 63.6016L71.2544 61.8948C70.8991 61.6942 70.49 61.6095 70.0842 61.6525L70.2909 63.6016ZM42.8668 66.5111L42.66 64.562C41.6632 64.6678 40.9068 65.5086 40.9068 66.5111H42.8668ZM42.8668 87.064L42.4528 88.9798C43.0319 89.105 43.6366 88.9614 44.0977 88.5893C44.5588 88.2172 44.8268 87.6565 44.8268 87.064H42.8668ZM15.5191 81.1536L13.5729 81.3864C13.6723 82.2168 14.2876 82.8927 15.1051 83.0694L15.5191 81.1536ZM6.15945 2.89062L8.10561 2.65788C8.02471 1.98144 7.59837 1.39552 6.97962 1.11045C6.36086 0.825379 5.63847 0.882047 5.07174 1.26011L6.15945 2.89062ZM3.28589 23.5277L5.23694 23.3404L3.28589 23.5277ZM8.14584 87.064H6.18581C6.18581 87.8664 6.67484 88.5877 7.42018 88.8848L8.14584 87.064ZM51.7066 88.6296H49.7465C49.7465 89.5082 50.3312 90.2794 51.1771 90.5168L51.7066 88.6296ZM51.7066 74.9535L50.6361 73.3116C50.0812 73.6734 49.7465 74.2911 49.7465 74.9535H51.7066ZM69.3105 93.569L68.781 95.4561C69.1203 95.5513 69.479 95.5533 69.8193 95.4618L69.3105 93.569ZM79.0641 90.947L79.5482 89.0477C79.2221 88.9646 78.8802 88.9668 78.5553 89.0542L79.0641 90.947ZM89.3517 93.569L88.8676 95.4683C89.2298 95.5606 89.6108 95.5474 89.9658 95.4303L89.3517 93.569ZM104.322 88.6296L104.936 90.4909C105.739 90.2259 106.282 89.4755 106.282 88.6296H104.322ZM104.322 73.1803H106.282C106.282 72.4379 105.862 71.7592 105.198 71.4272L104.322 73.1803ZM88.7895 74.3659L88.304 72.4669L88.7895 74.3659ZM66.1982 74.8479L66.6077 72.9311H66.6077L66.1982 74.8479ZM101.644 101.105C99.7237 101.56 96.3191 101.869 92.0192 102.038C87.7688 102.206 82.7902 102.232 77.8092 102.166C67.8202 102.034 57.9597 101.531 54.0435 101.066L53.5817 104.959C57.7115 105.449 67.7416 105.953 77.7572 106.086C82.7785 106.153 87.8307 106.126 92.1733 105.955C96.4664 105.787 100.217 105.472 102.548 104.92L101.644 101.105ZM139.451 87.064C138.599 85.299 138.599 85.299 138.598 85.2991C138.598 85.2992 138.598 85.2993 138.598 85.2995C138.597 85.2999 138.596 85.3005 138.594 85.3013C138.59 85.303 138.585 85.3054 138.579 85.3087C138.565 85.3153 138.544 85.3252 138.517 85.3382C138.463 85.3644 138.382 85.4033 138.276 85.4543C138.064 85.5563 137.751 85.7063 137.35 85.8981C136.547 86.2818 135.39 86.8324 133.974 87.4996C131.143 88.8343 127.281 90.6341 123.155 92.4959C114.81 96.2623 105.669 100.151 101.644 101.105L102.548 104.92C107.025 103.858 116.561 99.7729 124.768 96.0689C128.919 94.1956 132.801 92.3862 135.646 91.0454C137.068 90.3749 138.231 89.8213 139.04 89.4351C139.444 89.242 139.759 89.0908 139.974 88.9876C140.081 88.9361 140.163 88.8965 140.219 88.8699C140.246 88.8565 140.267 88.8464 140.282 88.8395C140.289 88.8361 140.294 88.8335 140.298 88.8317C140.299 88.8309 140.301 88.8302 140.302 88.8298C140.302 88.8295 140.303 88.8293 140.303 88.8292C140.303 88.8291 140.303 88.829 139.451 87.064ZM142.001 20.2471C141.038 29.5325 139.606 43.3351 138.567 56.2562C137.536 69.0948 136.869 81.3047 137.502 87.2707L141.4 86.8574C140.814 81.3306 141.434 69.5215 142.475 56.5702C143.509 43.7014 144.936 29.943 145.9 20.6516L142.001 20.2471ZM143.043 9.51668C143.043 9.78786 142.951 10.8884 142.76 12.8318C142.576 14.7082 142.313 17.2381 142.001 20.2471L145.9 20.6516C146.212 17.647 146.475 15.1047 146.661 13.2153C146.84 11.3928 146.963 10.0339 146.963 9.51668H143.043ZM139.927 4.34412C140.446 4.81342 141.273 5.70086 141.954 6.73822C142.665 7.82006 143.043 8.80035 143.043 9.51668H146.963C146.963 7.65408 146.087 5.88841 145.231 4.58549C144.345 3.23808 143.292 2.10197 142.557 1.43713L139.927 4.34412ZM134.554 79.5056L143.19 3.11078L139.294 2.67047L130.659 79.0653L134.554 79.5056ZM112.487 88.8999L133.293 81.1214L131.92 77.4496L111.114 85.2281L112.487 88.8999ZM109.84 66.5111V87.064H113.76V66.5111H109.84ZM84.1629 63.6016C84.0929 65.5604 84.0929 65.5604 84.0929 65.5604C84.093 65.5604 84.0932 65.5604 84.0934 65.5604C84.0939 65.5604 84.0946 65.5605 84.0956 65.5605C84.0977 65.5606 84.101 65.5607 84.1054 65.5608C84.1141 65.5612 84.1275 65.5617 84.1453 65.5623C84.1809 65.5636 84.2344 65.5657 84.3049 65.5684C84.4458 65.5739 84.6545 65.5823 84.9235 65.5938C85.4617 65.6167 86.2414 65.652 87.2036 65.7013C89.1288 65.7999 91.7815 65.9544 94.6921 66.1776C100.572 66.6286 107.31 67.3474 111.298 68.4056L112.303 64.6166C107.919 63.4534 100.838 62.7175 94.9919 62.2691C92.0397 62.0426 89.3528 61.8862 87.4041 61.7864C86.4295 61.7365 85.6386 61.7006 85.0905 61.6773C84.8165 61.6656 84.603 61.657 84.4576 61.6514C84.385 61.6485 84.3293 61.6464 84.2915 61.645C84.2726 61.6443 84.2582 61.6438 84.2484 61.6434C84.2435 61.6432 84.2397 61.6431 84.2371 61.643C84.2358 61.6429 84.2348 61.6429 84.2341 61.6429C84.2337 61.6429 84.2334 61.6429 84.2332 61.6429C84.233 61.6428 84.2328 61.6428 84.1629 63.6016ZM69.3274 65.3085C72.562 67.1344 75.1742 68.0527 77.7825 67.9471C80.3661 67.8426 82.6368 66.7376 85.1386 65.3015L83.1871 61.9017C80.7277 63.3135 79.1781 63.9674 77.624 64.0303C76.0946 64.0922 74.2514 63.5865 71.2544 61.8948L69.3274 65.3085ZM43.0736 68.4602L70.4977 65.5507L70.0842 61.6525L42.66 64.562L43.0736 68.4602ZM44.8268 87.064V66.5111H40.9068V87.064H44.8268ZM15.1051 83.0694L42.4528 88.9798L43.2809 85.1482L15.9331 79.2378L15.1051 83.0694ZM4.2133 3.12337L13.5729 81.3864L17.4653 80.9209L8.10561 2.65788L4.2133 3.12337ZM3.98737 9.51668C3.98737 8.54711 4.427 7.52634 5.14828 6.55886C5.86353 5.59946 6.72761 4.86773 7.24716 4.52114L5.07174 1.26011C4.21393 1.83236 3.01195 2.86584 2.00549 4.21586C1.00506 5.55779 0.0673211 7.39063 0.0673211 9.51668H3.98737ZM5.23694 23.3404C4.8679 19.4968 4.55376 16.2249 4.33183 13.8009C4.1037 11.3091 3.98737 9.85274 3.98737 9.51668H0.0673211C0.0673211 10.0838 0.211399 11.7912 0.42811 14.1583C0.65102 16.593 0.966151 19.8751 1.33484 23.715L5.23694 23.3404ZM10.1059 87.064C10.1059 74.0236 7.02184 41.9301 5.23694 23.3404L1.33484 23.715C3.13166 42.4289 6.18581 74.2649 6.18581 87.064H10.1059ZM54.0435 101.066C52.2647 100.855 48.5989 99.8108 43.898 98.2568C39.2723 96.7277 33.8408 94.7734 28.6446 92.8429C23.4513 90.9136 18.5071 89.0133 14.8603 87.595C13.0372 86.8859 11.5391 86.2977 10.4971 85.8868C9.97614 85.6813 9.56925 85.5203 9.29285 85.4107C9.15464 85.3558 9.04906 85.3139 8.97815 85.2857C8.9427 85.2716 8.91591 85.2609 8.89805 85.2538C8.88912 85.2503 8.88242 85.2476 8.87798 85.2458C8.87577 85.245 8.87411 85.2443 8.87303 85.2439C8.87249 85.2437 8.87211 85.2435 8.87184 85.2434C8.8716 85.2433 8.8715 85.2433 8.14584 87.064C7.42018 88.8848 7.42037 88.8848 7.4207 88.885C7.421 88.8851 7.42148 88.8853 7.42208 88.8855C7.42328 88.886 7.42506 88.8867 7.4274 88.8876C7.43209 88.8895 7.43904 88.8923 7.44822 88.8959C7.46658 88.9032 7.49388 88.9141 7.52985 88.9284C7.6018 88.957 7.70845 88.9994 7.84776 89.0546C8.12636 89.1651 8.53559 89.3271 9.05904 89.5335C10.1059 89.9463 11.6098 90.5369 13.4394 91.2484C17.0979 92.6713 22.0617 94.5791 27.2794 96.5176C32.4942 98.4549 37.9764 100.428 42.6676 101.979C47.2835 103.505 51.3375 104.693 53.5817 104.959L54.0435 101.066ZM53.6666 88.6296V74.9535H49.7465V88.6296H53.6666ZM69.84 91.6818L52.2361 86.7425L51.1771 90.5168L68.781 95.4561L69.84 91.6818ZM78.5553 89.0542L68.8017 91.6762L69.8193 95.4618L79.5729 92.8398L78.5553 89.0542ZM89.8357 91.6697L79.5482 89.0477L78.58 92.8463L88.8676 95.4683L89.8357 91.6697ZM103.708 86.7683L88.7375 91.7077L89.9658 95.4303L104.936 90.4909L103.708 86.7683ZM102.362 73.1803V88.6296H106.282V73.1803H102.362ZM89.275 76.2648C92.276 75.4976 95.1114 74.7758 97.6454 74.4572C100.216 74.1339 102.134 74.2777 103.445 74.9334L105.198 71.4272C102.824 70.24 99.9449 70.2172 97.1563 70.5678C94.3308 70.9231 91.243 71.7156 88.304 72.4669L89.275 76.2648ZM77.3647 78.3845C81.0365 78.3845 85.3347 77.2722 89.275 76.2648L88.304 72.4669C84.2077 73.5142 80.4383 74.4645 77.3647 74.4645V78.3845ZM65.7886 76.7646C69.3349 77.5223 73.3354 78.3845 77.3647 78.3845V74.4645C73.8192 74.4645 70.2254 73.7041 66.6077 72.9311L65.7886 76.7646ZM52.777 76.5954C54.1423 75.7052 55.8757 75.3869 58.1161 75.4999C60.3804 75.6142 62.9147 76.1506 65.7886 76.7646L66.6077 72.9311C63.8161 72.3347 60.954 71.7181 58.3136 71.5849C55.6493 71.4504 52.9696 71.7902 50.6361 73.3116L52.777 76.5954Z" fill="#3B2607"/>
<path d="M64.2676 83.4829C70.2901 84.31 84.3428 84.9718 92.3736 81.002" stroke="#3B2607" stroke-width="6" stroke-linecap="round" stroke-linejoin="round"/>
</svg>
