<svg width="147" height="107" viewBox="0 0 147 107" fill="none" xmlns="http://www.w3.org/2000/svg">
<path d="M68.9486 58.0049C66.1653 57.8309 60.8305 62.5713 58.5109 64.9632C52.4949 62.6438 42.3763 60.7013 50.0305 71.4868C59.5982 84.9687 65.4519 91.667 77.6465 91.667C92.9012 91.667 105.697 71.4868 106.567 69.0949C107.263 67.1813 102.653 66.413 100.261 66.268C96.8545 63.5137 89.2583 58.0049 86.127 58.0049C82.2129 58.0049 79.6035 61.9191 77.6465 61.9191C75.6894 61.9191 72.4277 58.2224 68.9486 58.0049Z" fill="#E22525"/>
<path d="M78.4319 84.0182C69.5726 85.2838 53.1192 70.8347 46 63.4519C64.9457 69.4396 94.3556 67.639 108.49 63.4519C105.326 69.7801 89.506 82.4363 78.4319 84.0182Z" fill="white" stroke="#383434" stroke-width="4.24724" stroke-linejoin="round"/>
</svg>
