<svg width="68" height="35" viewBox="0 0 68 35" fill="none" xmlns="http://www.w3.org/2000/svg">
<path d="M25.9232 0.577904C23.14 0.403897 17.8051 5.14425 15.4856 7.53618C9.46947 5.21675 -0.649129 3.27428 7.00507 14.0598C16.5728 27.5417 22.4265 34.2399 34.6211 34.2399C49.8758 34.2399 62.672 14.0598 63.5418 11.6679C64.2376 9.75431 59.6277 8.98599 57.2358 8.84103C53.8291 6.08665 46.2329 0.577904 43.1016 0.577904C39.1875 0.577904 36.5781 4.49205 34.6211 4.49205C32.6641 4.49205 29.4023 0.795414 25.9232 0.577904Z" fill="#E22525"/>
<path d="M35.4065 26.5908C26.5472 27.8563 10.0939 13.4072 2.97461 6.02441C21.9203 12.0121 51.3302 10.2115 65.465 6.02441C62.301 12.3526 46.4806 25.0088 35.4065 26.5908Z" fill="white" stroke="#383434" stroke-width="4.24724" stroke-linejoin="round"/>
</svg>
