<svg width="89" height="51" viewBox="0 0 89 51" fill="none" xmlns="http://www.w3.org/2000/svg">
<path d="M75.1717 12.9854L14.5049 22.9308C14.5049 22.9308 20.0713 40.014 27.5507 45.8061C35.03 51.5983 67.6698 45.097 71.4207 38.694C75.1717 32.291 75.1717 20.571 75.1717 12.9854Z" fill="#383434"/>
<path d="M76.2303 22.2657L18.0624 30.968L14.3994 22.2657L73.9394 14.0225L76.2303 22.2657Z" fill="white"/>
<path d="M38.3115 46.7999C40.9204 38.1779 50.3116 24.8899 67.0059 40.7144C63.5278 43.8295 52.9195 49.4076 38.3115 46.7999Z" fill="#E22525"/>
<path d="M71.4207 38.694C75.1717 32.291 75.1717 20.571 75.1717 12.9854C75.1717 12.9854 56.8225 17.9065 44.874 19.8493C32.9255 21.7921 14.5049 22.9308 14.5049 22.9308C14.5049 22.9308 20.0713 40.014 27.5507 45.8061C35.03 51.5983 67.6698 45.097 71.4207 38.694Z" stroke="#383434" stroke-width="5.15392"/>
<path d="M75.9548 14.3907C75.0574 14.3521 74.3387 13.6334 74.3001 12.7361L74.0789 7.59853C74.011 6.02191 75.916 5.18442 77.0318 6.30029L82.3905 11.659C83.5064 12.7748 82.6689 14.6798 81.0923 14.6119L75.9548 14.3907Z" fill="#383434"/>
<path d="M14.6996 21.9311C14.7533 22.8277 14.1122 23.6163 13.2236 23.7469L8.13592 24.4944C6.57461 24.7238 5.54593 22.915 6.54132 21.6904L11.3214 15.8098C12.3168 14.5853 14.2977 15.2227 14.3921 16.798L14.6996 21.9311Z" fill="#383434"/>
</svg>
