<svg width="147" height="107" viewBox="0 0 147 107" fill="none" xmlns="http://www.w3.org/2000/svg">
<path d="M108.192 62.5107L47.5254 72.4562C47.5254 72.4562 53.0919 89.5394 60.5712 95.3315C68.0505 101.124 100.69 94.6224 104.441 88.2194C108.192 81.8164 108.192 70.0964 108.192 62.5107Z" fill="#383434"/>
<path d="M109.251 71.7911L51.083 80.4934L47.4199 71.7911L106.96 63.5479L109.251 71.7911Z" fill="white"/>
<path d="M71.332 96.3253C73.9409 87.7033 83.3321 74.4153 100.026 90.2398C96.5483 93.3549 85.94 98.933 71.332 96.3253Z" fill="#E22525"/>
<path d="M104.441 88.2194C108.192 81.8164 108.192 70.0964 108.192 62.5107C108.192 62.5107 89.843 67.4319 77.8945 69.3747C65.946 71.3175 47.5254 72.4562 47.5254 72.4562C47.5254 72.4562 53.0919 89.5394 60.5712 95.3315C68.0505 101.124 100.69 94.6224 104.441 88.2194Z" stroke="#383434" stroke-width="5.15392"/>
<path d="M108.975 63.9161C108.078 63.8775 107.359 63.1588 107.321 62.2614L107.099 57.1239C107.032 55.5473 108.936 54.7098 110.052 55.8257L115.411 61.1844C116.527 62.3002 115.689 64.2052 114.113 64.1373L108.975 63.9161Z" fill="#383434"/>
<path d="M47.7211 71.4564C47.7748 72.353 47.1337 73.1417 46.2451 73.2723L41.1574 74.0198C39.5961 74.2492 38.5674 72.4404 39.5628 71.2158L44.3429 65.3352C45.3383 64.1106 47.3192 64.7481 47.4136 66.3234L47.7211 71.4564Z" fill="#383434"/>
</svg>
