<svg width="147" height="107" viewBox="0 0 147 107" fill="none" xmlns="http://www.w3.org/2000/svg">
<path d="M102.024 84.652L101.973 84.6947L101.926 84.7407C101.278 85.365 100.179 86.0233 98.5796 86.6444C97.0042 87.2561 95.0643 87.7856 92.8493 88.2182C88.4201 89.0834 83.048 89.5314 77.6248 89.5396C72.2017 89.5478 66.8003 89.1161 62.3126 88.2545C57.7834 87.385 54.5633 86.1447 53.0252 84.78C51.4175 82.8999 49.8193 79.5737 48.6435 75.4367C47.564 71.6384 46.8899 67.3296 46.853 63.1686C58.6674 67.239 68.2026 69.1754 77.6795 69.0948C87.1295 69.0144 96.385 66.929 107.635 63.1479C107.547 67.0549 106.802 71.7394 105.729 75.848C105.138 78.107 104.462 80.1393 103.769 81.7332C103.039 83.4128 102.406 84.3296 102.024 84.652Z" fill="white" stroke="#383434" stroke-width="3.99569"/>
<path fill-rule="evenodd" clip-rule="evenodd" d="M111.369 59.6825C111.193 58.8718 110.427 58.3299 109.604 58.4349L104.894 59.0358C103.448 59.2202 102.983 61.0848 104.173 61.9262L109.887 65.9668C111.077 66.8081 112.68 65.7484 112.372 64.324L111.369 59.6825ZM43.1199 60.3016C43.262 59.4547 44.0479 58.8714 44.8996 58.9808L49.8552 59.6168C51.2823 59.8 51.7596 61.6281 50.6042 62.4855L44.8219 66.7768C43.6665 67.6342 42.0551 66.6478 42.2932 65.2289L43.1199 60.3016ZM65.8739 78.707C58.7283 77.1922 49.1437 73.9115 47.4214 71.7586C47.6212 73.49 49.6989 76.913 51.6169 79.1506C51.6169 77.8916 55.1576 78.2718 59.2715 78.7136H59.2715H59.2716C61.4445 78.947 63.7773 79.1975 65.8327 79.2327C66.2052 79.2391 66.2383 78.7843 65.8739 78.707ZM87.4258 78.7151C94.8027 77.2038 105.55 73.9153 107.275 71.7586C107.076 73.49 104.998 76.913 103.08 79.1506C103.08 77.8795 99.0028 78.2793 94.4439 78.7264C92.0799 78.9582 89.5864 79.2028 87.4646 79.2336C87.0921 79.2391 87.0609 78.7899 87.4258 78.7151Z" fill="#383434"/>
</svg>
