<svg width="71" height="34" viewBox="0 0 71 34" fill="none" xmlns="http://www.w3.org/2000/svg">
<path d="M60.023 26.652L59.9724 26.6947L59.9248 26.7407C59.2773 27.365 58.1783 28.0233 56.5787 28.6444C55.0032 29.2561 53.0633 29.7856 50.8483 30.2182C46.4191 31.0834 41.047 31.5314 35.6238 31.5396C30.2008 31.5478 24.7994 31.1161 20.3116 30.2545C15.7824 29.385 12.5623 28.1447 11.0242 26.78C9.41654 24.8999 7.81835 21.5737 6.64253 17.4367C5.56299 13.6384 4.88889 9.32963 4.85198 5.16857C16.6664 9.23904 26.2016 11.1754 35.6785 11.0948C45.1286 11.0144 54.384 8.92902 65.6344 5.14788C65.5462 9.05487 64.8013 13.7394 63.7276 17.848C63.1373 20.107 62.4611 22.1393 61.7684 23.7332C61.0384 25.4128 60.4052 26.3296 60.023 26.652Z" fill="white" stroke="#383434" stroke-width="3.99569"/>
<path fill-rule="evenodd" clip-rule="evenodd" d="M69.3678 1.68253C69.1925 0.871795 68.4261 0.329891 67.6033 0.43486L62.8928 1.03581C61.4472 1.22024 60.9824 3.08484 62.1723 3.92622L67.8864 7.96676C69.0763 8.80815 70.6793 7.74842 70.3713 6.32402L69.3678 1.68253ZM1.11894 2.30155C1.26104 1.45467 2.04694 0.87143 2.89867 0.980755L7.85419 1.61683C9.28131 1.80001 9.75862 3.62808 8.60321 4.48555L2.82093 8.77678C1.66552 9.63425 0.054106 8.64785 0.292197 7.22885L1.11894 2.30155ZM23.8729 20.707C16.7273 19.1922 7.14274 15.9115 5.42041 13.7586C5.6202 15.49 7.69796 18.913 9.61589 21.1506C9.61589 19.8916 13.1566 20.2718 17.2705 20.7136H17.2705C19.4435 20.947 21.7763 21.1975 23.8318 21.2327C24.2043 21.2391 24.2374 20.7843 23.8729 20.707ZM45.4249 20.7151C52.8017 19.2038 63.5491 15.9153 65.2745 13.7586C65.0747 15.49 62.997 18.913 61.079 21.1506C61.079 19.8795 57.0019 20.2793 52.4429 20.7264C50.0789 20.9582 47.5854 21.2028 45.4637 21.2336C45.0911 21.2391 45.0599 20.7899 45.4249 20.7151Z" fill="#383434"/>
</svg>
