<svg width="156" height="38" viewBox="0 0 156 38" fill="none" xmlns="http://www.w3.org/2000/svg">
<path fill-rule="evenodd" clip-rule="evenodd" d="M126.909 10.6939C126.264 13.818 125.128 17.7963 123.628 21.366C122.711 23.5501 121.699 25.4777 120.648 26.9357C119.556 28.4504 118.642 29.1482 118.029 29.3736C112.546 31.3881 105.531 32.6026 94.7296 31.6495C93.6484 31.5541 92.5196 30.9489 91.3506 29.5486C90.1668 28.1306 89.118 26.0905 88.2736 23.6523C86.7612 19.2854 86.1044 14.2356 86.1871 10.6711C91.4091 6.71559 99.7589 5.52263 108.33 6.16207C112.779 6.49397 117.082 7.3067 120.685 8.34188C123.279 9.08697 125.392 9.91358 126.909 10.6939ZM130.798 5.99043C128.604 4.68965 125.631 3.52007 122.342 2.57509C118.348 1.42792 113.64 0.541555 108.776 0.178699C100.263 -0.45645 90.5874 0.467666 83.6235 5.13289C83.4787 5.07314 83.3242 5.0144 83.1594 4.95747C82.0704 4.58132 80.5578 4.29214 78.4831 4.29219C76.4085 4.29224 74.896 4.58142 73.8071 4.95751C73.5318 5.05258 73.2852 5.15269 73.0649 5.25411C66.0885 0.483681 56.3198 -0.461914 47.733 0.1787C42.8693 0.541555 38.161 1.42792 34.1675 2.57509C30.8624 3.52451 27.8772 4.70066 25.6799 6.00879L4.26365 1.57072C2.64127 1.23451 1.05352 2.27717 0.71731 3.89955C0.381105 5.52194 1.42376 7.10969 3.04614 7.44589L23.6868 11.7232C24.4017 15.2461 25.6635 19.6775 27.3494 23.6901C28.3678 26.1141 29.5838 28.4887 30.9947 30.4452C32.3647 32.345 34.1483 34.1739 36.4113 35.0055C42.852 37.3721 50.7729 38.644 62.3071 37.6262C65.4629 37.3478 67.9355 35.5849 69.7647 33.3937C71.5792 31.2202 72.9254 28.4453 73.9054 25.6158C75.6443 20.5946 76.4262 14.8179 76.319 10.4806C76.7867 10.3829 77.4886 10.2922 78.4833 10.2922C79.1962 10.2922 79.7587 10.3388 80.1924 10.4011C80.0736 14.7472 80.8543 20.5638 82.604 25.6158C83.5839 28.4453 84.9301 31.2202 86.7446 33.3937C88.5738 35.5849 91.0464 37.3478 94.2022 37.6262C105.736 38.644 113.657 37.3721 120.098 35.0055C122.361 34.1739 124.145 32.345 125.515 30.4452C126.926 28.4887 128.141 26.1141 129.16 23.6901C130.853 19.6615 132.118 15.2108 132.831 11.6811L153.022 7.08164C154.638 6.71364 155.649 5.10572 155.281 3.49025C154.913 1.87478 153.305 0.863503 151.69 1.2315L130.798 5.99043ZM29.6004 10.6939C30.2454 13.818 31.3811 17.7963 32.8809 21.366C33.7986 23.5501 34.8099 25.4777 35.8613 26.9357C36.9535 28.4504 37.8673 29.1482 38.4808 29.3736C43.9628 31.3881 50.9779 32.6026 61.7797 31.6495C62.8609 31.5541 63.9898 30.9489 65.1588 29.5486C66.3425 28.1306 67.3913 26.0905 68.2358 23.6523C69.7481 19.2854 70.405 14.2356 70.3222 10.6711C65.1003 6.71559 56.7504 5.52263 48.1794 6.16207C43.7306 6.49397 39.4277 7.3067 35.824 8.34188C33.2302 9.08697 31.1171 9.91358 29.6004 10.6939Z" fill="#383434"/>
</svg>
