<svg width="143" height="34" viewBox="0 0 143 34" fill="none" xmlns="http://www.w3.org/2000/svg">
<path fill-rule="evenodd" clip-rule="evenodd" d="M47.6047 29.6541C57.0549 28.7332 62.759 21.9245 62.1623 15.8014C61.5657 9.6783 54.6546 4.09882 45.2043 5.01966C35.754 5.94049 30.05 12.7492 30.6466 18.8723C31.2433 24.9954 38.1544 30.5749 47.6047 29.6541ZM66.2081 16.6692C66.255 25.1618 58.3847 32.6226 47.9926 33.6352C37.091 34.6975 27.5426 28.2616 26.6655 19.2602C26.5286 17.8551 26.611 16.4705 26.8892 15.1302C26.7219 14.9951 26.4976 14.8262 26.2302 14.6531C25.6513 14.2784 24.955 13.9395 24.2467 13.8155L3.21825 19.4923C2.82453 19.5986 2.40452 19.54 2.05493 19.33C1.70534 19.12 1.45632 18.7768 1.36521 18.3793L1.03531 16.9398C0.850854 16.135 1.35147 15.3325 2.15538 15.1442L2.49185 16.581C2.15538 15.1442 2.15548 15.1442 2.15565 15.1442L2.15637 15.144L2.15912 15.1434L2.16987 15.1408L2.21196 15.131L2.37555 15.0929C2.51879 15.0595 2.72893 15.0107 2.99704 14.9486C3.53324 14.8245 4.3014 14.6476 5.23012 14.436C7.0871 14.0129 9.58805 13.4509 12.1609 12.8956C14.7313 12.3409 17.3843 11.7906 19.5417 11.3925C20.619 11.1937 21.5871 11.0302 22.3659 10.9231C23.0796 10.825 23.8079 10.747 24.2973 10.7961C25.7583 10.9427 27.0178 11.5893 27.8603 12.1346L27.8635 12.1366C30.4816 6.29889 36.9212 1.80782 44.8164 1.03851C54.1553 0.128522 62.5012 4.72119 65.2534 11.7154C65.5711 11.6182 65.9705 11.5065 66.4408 11.3959C67.6484 11.1118 69.3468 10.8294 71.3393 10.8296C73.3313 10.8297 75.0327 11.112 76.2428 11.3956C76.6568 11.4926 77.0162 11.5904 77.3134 11.6785C80.0803 4.70505 88.4133 0.130123 97.7358 1.03851C105.78 1.82233 112.313 6.46964 114.833 12.4684C114.98 12.3612 115.143 12.2486 115.319 12.1346C116.161 11.5893 117.421 10.9427 118.882 10.7961C119.371 10.747 120.1 10.825 120.813 10.9231C121.592 11.0302 122.56 11.1937 123.637 11.3925C125.795 11.7906 128.448 12.3409 131.018 12.8956C133.591 13.4509 136.092 14.0129 137.949 14.436C138.878 14.6476 139.646 14.8245 140.182 14.9486C140.45 15.0107 140.66 15.0595 140.804 15.0929L140.967 15.131L141.009 15.1408L141.02 15.1434L141.023 15.144L141.023 15.1442C141.024 15.1442 141.024 15.1442 140.687 16.581L141.024 15.1442C141.828 15.3325 142.328 16.135 142.144 16.9398L141.814 18.3793C141.723 18.7768 141.474 19.12 141.124 19.33C140.775 19.54 140.355 19.5986 139.961 19.4923L118.932 13.8155C118.224 13.9395 117.528 14.2784 116.949 14.6531C116.636 14.8554 116.383 15.052 116.21 15.1956C116.124 15.267 116.06 15.3241 116.02 15.3606C116 15.3788 115.986 15.3918 115.978 15.3988L115.972 15.4044C115.903 15.4724 115.828 15.5322 115.749 15.5838C115.957 16.782 116.008 18.013 115.887 19.2602C115.01 28.2616 105.461 34.6975 94.5596 33.6352C84.1464 32.6205 76.2652 25.1314 76.3445 16.6174C76.2957 16.6003 76.2306 16.5781 76.1502 16.5521C75.9184 16.4772 75.5615 16.3714 75.1021 16.2637C74.1789 16.0474 72.867 15.8297 71.3389 15.8296C69.8112 15.8295 68.5038 16.0471 67.5856 16.263C67.1285 16.3705 66.774 16.4762 66.5442 16.5509C66.4294 16.5882 66.3464 16.6175 66.2977 16.6353C66.2734 16.6441 66.2578 16.6501 66.2511 16.6526L66.2488 16.6535C66.2352 16.6589 66.2217 16.6641 66.2081 16.6692ZM94.9475 29.6541C85.4972 28.7332 79.7932 21.9245 80.3899 15.8014C80.9865 9.6783 87.8976 4.09882 97.3479 5.01966C106.798 5.94049 112.502 12.7492 111.906 18.8723C111.309 24.9954 104.398 30.5749 94.9475 29.6541Z" fill="#383434"/>
</svg>
