<svg width="151" height="39" viewBox="0 0 151 39" fill="none" xmlns="http://www.w3.org/2000/svg">
<path opacity="0.7" d="M79.2596 11.1772C91.3913 0.363462 118.919 5.9215 126.231 11.1772C125.136 18.1846 120.816 32.0564 115.063 34.1703C109.102 36.3609 101.634 37.604 90.4657 36.6186C81.9916 35.8709 78.6027 19.17 79.2596 11.1772Z" fill="#383434"/>
<path opacity="0.7" d="M69.2492 10.1772C57.1175 -0.636538 29.5895 4.9215 22.2773 10.1772C23.3724 17.1846 27.6929 31.0564 33.4458 33.1703C39.4071 35.3609 46.8751 36.604 58.0431 35.6186C66.5172 34.8709 69.9061 18.17 69.2492 10.1772Z" fill="#383434"/>
<path fill-rule="evenodd" clip-rule="evenodd" d="M122.909 11.6744C122.264 14.7984 121.128 18.7767 119.628 22.3464C118.711 24.5305 117.699 26.4582 116.648 27.9162C115.556 29.4309 114.642 30.1287 114.029 30.3541C108.546 32.3685 101.531 33.583 90.7296 32.6299C89.6484 32.5345 88.5196 31.9294 87.3506 30.5291C86.1668 29.1111 85.118 27.071 84.2736 24.6328C82.7613 20.2659 82.1044 15.2161 82.1872 11.6516C87.4091 7.69606 95.759 6.5031 104.33 7.14254C108.779 7.47444 113.082 8.28717 116.685 9.32234C119.279 10.0674 121.392 10.894 122.909 11.6744ZM126.836 6.99309C124.638 5.68342 121.65 4.50591 118.342 3.55556C114.348 2.40839 109.64 1.52202 104.776 1.15917C96.2628 0.524016 86.5874 1.44814 79.6235 6.11341C79.4787 6.05365 79.3241 5.99489 79.1592 5.93794C78.0702 5.56179 76.5577 5.27261 74.483 5.27266C72.4083 5.27271 70.8959 5.56189 69.8069 5.93798C69.5317 6.03305 69.285 6.13317 69.0648 6.23459C62.0884 1.46416 52.3196 0.51856 43.7329 1.15917C38.8692 1.52203 34.1608 2.40839 30.1673 3.55557C26.876 4.50104 23.902 5.67135 21.7073 6.97295L3.76702 2.92744C2.15075 2.56297 0.545049 3.57775 0.180581 5.19403C-0.183887 6.8103 0.830899 8.416 2.44717 8.78047L19.6791 12.6663C20.3927 16.1952 21.6574 20.6438 23.3492 24.6706C24.3677 27.0946 25.5837 29.4692 26.9946 31.4257C28.3646 33.3255 30.1482 35.1544 32.4112 35.9859C38.8519 38.3526 46.7727 39.6244 58.307 38.6067C61.4628 38.3282 63.9354 36.5654 65.7646 34.3742C67.5791 32.2007 68.9253 29.4258 69.9052 26.5963C71.6442 21.5751 72.4261 15.7984 72.3189 11.4611C72.7865 11.3634 73.4885 11.2727 74.4831 11.2727C75.1962 11.2726 75.7588 11.3193 76.1924 11.3816C76.0737 15.7277 76.8544 21.5443 78.604 26.5963C79.5839 29.4258 80.9301 32.2007 82.7446 34.3742C84.5738 36.5654 87.0464 38.3282 90.2022 38.6067C101.736 39.6244 109.657 38.3526 116.098 35.9859C118.361 35.1544 120.145 33.3255 121.515 31.4257C122.926 29.4692 124.141 27.0946 125.16 24.6706C126.844 20.6614 128.105 16.234 128.821 12.7126L148.129 8.79401C149.753 8.46447 150.802 6.88102 150.472 5.25727C150.143 3.63352 148.559 2.58435 146.936 2.91388L126.836 6.99309ZM25.6003 11.6744C26.2453 14.7984 27.381 18.7767 28.8808 22.3464C29.7985 24.5305 30.8097 26.4582 31.8612 27.9162C32.9534 29.4309 33.8672 30.1287 34.4807 30.3541C39.9627 32.3685 46.9778 33.583 57.7796 32.6299C58.8608 32.5345 59.9896 31.9294 61.1586 30.5291C62.3424 29.1111 63.3912 27.071 64.2356 24.6328C65.748 20.2659 66.4048 15.2161 66.322 11.6516C61.1001 7.69607 52.7503 6.50311 44.1793 7.14255C39.7305 7.47445 35.4275 8.28717 31.8239 9.32235C29.2301 10.0674 27.117 10.8941 25.6003 11.6744Z" fill="#383434"/>
</svg>
