<svg width="91" height="26" viewBox="0 0 91 26" fill="none" xmlns="http://www.w3.org/2000/svg">
<ellipse cx="23.086" cy="13.6694" rx="9.30967" ry="11.5" fill="#383434"/>
<ellipse cx="23.3529" cy="8.86022" rx="3.95349" ry="3.95349" fill="white"/>
<path d="M2.07812 4.84152C5.36408 7.33431 8.10934 7.47941 10.7414 6.72259M10.7414 6.72259C10.0099 6.8819 7.7137 5.8024 6.3754 3.91521M10.7414 6.72259C11.7861 6.4222 12.813 5.97973 13.8488 5.48557M13.8488 5.48557C16.0728 4.4245 18.3379 3.12517 20.9088 2.48253C26.3364 1.12576 30.3 5.48557 32.0408 7.53972C32.429 7.99768 33.3868 9.00019 34.4209 9.4664C29.8741 9.4664 28.1057 3.36819 23.1933 3.36819C18.281 3.36819 16.4702 7.12475 12.4421 7.87362C10.7054 8.19648 8.16533 7.42606 6.3754 6.94598M13.8488 5.48557C12.8712 5.6707 10.7414 4.84152 9.76692 3.36819" stroke="#383434" stroke-width="2.33195" stroke-linecap="round" stroke-linejoin="round"/>
<ellipse cx="9.30967" cy="11.5" rx="9.30967" ry="11.5" transform="matrix(-1 0 0 1 77.8164 1.67236)" fill="#383434"/>
<ellipse cx="3.95349" cy="3.95349" rx="3.95349" ry="3.95349" transform="matrix(-1 0 0 1 72.1924 4.41016)" fill="white"/>
<path d="M89.5137 4.34445C86.2277 6.83724 83.4825 6.98234 80.8504 6.22552M80.8504 6.22552C81.5819 6.38483 83.8781 5.30533 85.2164 3.41814M80.8504 6.22552C79.8057 5.92513 78.7788 5.48266 77.743 4.9885M77.743 4.9885C75.519 3.92743 73.2539 2.6281 70.683 1.98546C65.2554 0.628688 61.2918 4.9885 59.551 7.04265C59.1628 7.50061 58.205 8.50312 57.1709 8.96933C61.7177 8.96933 63.4861 2.87112 68.3985 2.87112C73.3108 2.87112 75.1216 6.62768 79.1497 7.37655C80.8864 7.69941 83.4265 6.92899 85.2164 6.44891M77.743 4.9885C78.7206 5.17363 80.8504 4.34445 81.8249 2.87112" stroke="#383434" stroke-width="2.38162" stroke-linecap="round" stroke-linejoin="round"/>
</svg>
