<svg width="158" height="195" viewBox="0 0 158 195" fill="none" xmlns="http://www.w3.org/2000/svg">
  <rect x="49.9955" y="3.37143" width="57.5429" height="50.733" rx="7.16429" fill="#FFDD65" stroke="#383434" stroke-width="6.74286"/>
  <path d="M40.3023 133.371H117.231C121.188 133.371 124.395 136.579 124.395 140.536V179.302C124.395 182.589 122.169 185.415 119.056 186.137C89.8242 192.913 69.9793 192.926 38.5929 186.047C35.4186 185.351 33.138 182.496 33.138 179.169V140.536C33.138 136.579 36.3456 133.371 40.3023 133.371Z" fill="#FFDD65" stroke="#383434" stroke-width="6.74286"/>
  <path d="M3.63803 51.8932C3.63803 37.4628 15.3362 25.7646 29.7666 25.7646H127.767C142.197 25.7646 153.895 37.4628 153.895 51.8932V131.258C153.895 143.722 145.13 154.447 132.995 156.429C93.4464 162.889 64.2068 162.76 24.6596 156.372C12.4663 154.403 3.63803 143.651 3.63803 131.144V51.8932Z" fill="#FFDD65" stroke="#383434" stroke-width="6.74286"/>
  <path d="M3.63803 51.8932C3.63803 37.4628 15.3362 25.7646 29.7666 25.7646H127.767C142.197 25.7646 153.895 37.4628 153.895 51.8932V131.258C153.895 143.722 145.13 154.447 132.995 156.429C93.4464 162.889 64.2068 162.76 24.6596 156.372C12.4663 154.403 3.63803 143.651 3.63803 131.144V51.8932Z" stroke="#383434" stroke-width="6.74286"/>
</svg>