<svg width="90" height="28" viewBox="0 0 90 28" fill="none" xmlns="http://www.w3.org/2000/svg">
<path d="M1.38647 17.0517C7.88011 13.8185 15.2652 9.05112 32.0777 16.4594C32.2306 16.5268 32.4161 16.5042 32.5282 16.3779C33.2974 15.512 34.8608 12.8234 34.0627 11.5787C24.976 4.96453 5.68432 5.50442 0.835369 16.5544C0.68197 16.904 1.04115 17.2236 1.38647 17.0517Z" fill="#383434"/>
<path d="M88.6477 16.9223C82.1623 13.7701 75.5713 8.36713 58.9519 16.1632C58.8006 16.2342 58.6137 16.2163 58.4975 16.0937C57.7289 15.2823 56.2419 12.8677 57.0854 11.4465C65.288 4.57497 84.102 5.44304 89.1856 16.4185C89.3461 16.7649 88.9946 17.0909 88.6477 16.9223Z" fill="#383434"/>
</svg>
