<svg width="95" height="15" viewBox="0 0 95 15" fill="none" xmlns="http://www.w3.org/2000/svg">
<path d="M93.1568 13.5895C83.0683 6.61345 61.9374 6.74924 56.6501 10.0687C56.3623 10.2493 55.9386 10.1054 55.8563 9.77573C55.4505 8.15112 54.7684 5.41753 56.2257 4.62012C64.6482 0.0113742 84.1926 1.73957 93.7977 8.59135C94.3057 8.95371 94.0013 12.1274 93.7028 13.4063C93.6435 13.6603 93.3714 13.7379 93.1568 13.5895Z" fill="#383434"/>
<path d="M1.32401 13.0079C11.9012 6.75379 32.9029 6.26856 37.9355 9.78072C38.2141 9.9752 38.6424 9.86124 38.7335 9.53388C39.1917 7.88834 39.8598 5.01695 38.4637 4.11047C30.4111 -1.11793 10.8427 1.60402 0.750037 7.71492C0.213802 8.0396 0.511422 11.4476 0.780304 12.7882C0.831603 13.044 1.09946 13.1407 1.32401 13.0079Z" fill="#383434"/>
</svg>
