<svg width="292" height="252" viewBox="0 0 292 252" fill="none" xmlns="http://www.w3.org/2000/svg">
<path d="M224.729 79.263L217.205 75.971C214.54 73.9334 210.03 70.0027 209.211 64.6855C208.75 61.695 200.371 60.3593 196.985 59.9831C192.753 59.5129 198.866 42.1139 192.283 40.2329C185.699 38.352 177.093 45.7614 173.991 58.8239C170.725 59.7926 164.096 62.321 163.704 64.6855C158.86 63.2104 148.323 61.1454 144.927 64.6855C142.459 67.2581 144.869 82.3556 148.31 95.8282C149.604 100.895 153.345 114.257 159.117 121.123L104.596 108.641C97.4936 105.527 92.2139 87.2429 97.6146 77.642C102.287 69.3362 119.697 62.5199 125.818 51.5988C134.011 36.9803 129.824 15.6708 109.79 6.56922C90.2937 -2.28772 75.9194 2.63594 74.7157 13.5949C74.218 18.1264 79.3724 21.8349 89.5111 24.8606C104.309 29.2769 104.309 37.5567 104.309 40.8296C104.309 46.8457 94.159 51.2057 86.8133 54.7189C79.4676 58.2321 71.2001 67.1251 72.797 85.2232C74.2482 101.671 79.6142 102.91 73.8993 117.278C69.3274 128.773 69.4907 152.112 70.1438 162.344C67.4225 167.188 61.9798 177.562 61.9798 180.305C61.9798 183.048 61.3266 212.689 61.0001 227.167L94.1462 232.719L97.3302 229.943C100.514 229.736 106.237 228.018 108.06 226.135C109.264 224.892 109.264 219.376 109.264 212.798C109.264 211.129 104.013 206.72 101.337 205.777C102.939 201.673 107.651 189.358 112.137 184.315C124.037 187.027 140.741 189.669 147.376 186.51C150.424 190.483 156.52 201.303 156.52 212.798C156.52 227.167 154.071 239.25 157.989 242.189C161.124 244.54 180.958 247.958 190.482 249.373L206.129 236.47L215.628 228.637V215.084C209.529 212.405 198.154 204.439 201.45 194.005C205.568 180.962 216.095 160.71 214.493 152.129C212.891 143.548 206.713 127.301 210.031 121.123C213.349 114.945 215.294 111.741 219.184 111.741C223.074 111.741 241.144 96.0977 224.729 79.263Z" fill="#524F4F"/>
<path d="M163.704 64.6855C164.096 62.321 170.725 59.7926 173.991 58.8239C177.093 45.7614 185.699 38.352 192.283 40.2329C198.866 42.1139 192.753 59.5129 196.985 59.9831C200.371 60.3593 208.75 61.695 209.211 64.6855C210.03 70.0027 214.54 73.9334 217.205 75.971L224.729 79.263C241.144 96.0977 223.074 111.741 219.184 111.741C215.294 111.741 213.349 114.945 210.031 121.123C206.713 127.301 212.891 143.548 214.493 152.129C216.095 160.71 205.568 180.962 201.45 194.005C198.154 204.439 209.529 212.405 215.628 215.084V228.637L206.129 236.47M163.704 64.6855C158.86 63.2104 148.323 61.1454 144.927 64.6855C142.459 67.2581 144.869 82.3556 148.31 95.8282C149.604 100.895 153.345 114.257 159.117 121.123L104.596 108.641C97.4936 105.527 92.2139 87.2429 97.6146 77.642C102.287 69.3362 119.697 62.5199 125.818 51.5988C134.011 36.9803 129.824 15.6708 109.79 6.56922C90.2937 -2.28772 75.9194 2.63594 74.7157 13.5949C74.218 18.1264 79.3724 21.8349 89.5111 24.8606C104.309 29.2769 104.309 37.5567 104.309 40.8296C104.309 46.8457 94.159 51.2057 86.8133 54.7189C79.4676 58.2321 71.2001 67.1251 72.797 85.2232C74.2483 101.671 79.6142 102.91 73.8993 117.278C69.3274 128.773 69.4907 152.112 70.1438 162.344C67.4225 167.188 61.9797 177.562 61.9798 180.305C61.9798 183.048 61.3266 212.689 61.0001 227.167L94.1462 232.719L97.3302 229.943M163.704 64.6855C164.609 65.4062 165.823 66.7145 166.471 67.579M206.129 236.47L190.482 249.373C180.958 247.958 161.124 244.54 157.989 242.189C154.071 239.25 156.52 227.167 156.52 212.798C156.52 201.303 150.424 190.483 147.376 186.51C140.741 189.669 124.037 187.027 112.137 184.315M206.129 236.47V224.279C202.26 221.976 194.521 216.913 194.521 215.084C194.521 212.798 192.52 192.357 196.985 182.428M112.137 184.315C109.277 183.663 106.695 183.008 104.596 182.428C99.8611 182.754 90.2275 201.532 89.5743 205.777C88.9212 210.022 98.7181 211.982 100.514 215.084C101.951 217.566 101.113 224.173 100.514 227.167L97.3302 229.943M112.137 184.315C107.651 189.358 102.939 201.673 101.337 205.777C104.013 206.72 109.264 211.129 109.264 212.798C109.264 219.376 109.264 224.892 108.06 226.135C106.237 228.018 100.514 229.736 97.3302 229.943" stroke="#383434" stroke-width="4" stroke-linecap="round" stroke-linejoin="round"/>
<path d="M204.138 179.876C206.543 179.72 210.315 167.431 212.315 161.454C213.147 158.97 213.526 156.361 213.458 154.156C212.975 146.154 209.963 141.383 208.402 140.923C204.973 139.911 201.046 140.756 199.009 152.687C196.972 164.618 201.131 180.07 204.138 179.876Z" fill="white"/>
<ellipse cx="8.47612" cy="12.3211" rx="8.47612" ry="12.3211" transform="matrix(-1 0 0 1 230.351 81.5029)" fill="white"/>
<path d="M218.619 82.4833C219.578 81.3598 222.512 80.0065 224.072 80.2695C225.757 82.08 227.472 83.7938 227.543 85.1464C227.524 86.0106 226.945 87.8291 224.781 88.1898C222.076 88.6406 217.483 83.8153 218.619 82.4833Z" fill="#F4AFAF"/>
<path d="M221.241 102.212C226.181 101.036 226.921 94.3442 226.357 90.9141C226.602 93.3152 229.145 98.4186 230.497 98.5362" stroke="#383434" stroke-width="3.44626" stroke-linecap="round" stroke-linejoin="round"/>
<ellipse cx="5.41377" cy="6.02721" rx="5.41377" ry="6.02721" transform="matrix(-0.8484 0.529356 0.529356 0.8484 197.385 75.7207)" fill="#383434"/>
<ellipse cx="2.22818" cy="2.48066" rx="2.22818" ry="2.48066" transform="matrix(-0.8484 0.529356 0.529356 0.8484 195.091 79.249)" fill="#D9D9D9"/>
</svg>
