<svg width="292" height="252" viewBox="0 0 292 252" fill="none" xmlns="http://www.w3.org/2000/svg">
<path d="M277.787 84.4906C281.723 80.2544 280.521 75.7598 279.746 74.0827L250.394 51.9933C243.974 38.7429 235.083 35.8856 231.441 36.1133C231.95 26.9495 232.664 8.24614 231.441 6.74347C229.911 4.86513 223.586 4.01142 219.829 6.74347C216.824 8.92911 207.649 28.0306 203.437 37.3081C195.753 39.8694 173.214 79.8256 168.203 81.7039C166.414 82.3747 152.353 83.0024 134.462 83.5323V67.0196C134.462 65.1413 92.4477 64.9705 92.4477 67.8733V84.515C82.7594 84.6976 73.6773 84.8445 66.3224 84.9482C52.5484 88.0219 25.7174 103.424 28.586 140.443C29.6106 150.973 28.3811 175.209 15.2673 187.913C12.1952 193.262 7.22879 205.806 11.9398 213.183C11.7771 225.803 12.4861 242.172 13.0475 243.407C13.9013 245.285 45.1491 243.919 48.9057 243.407C51.9109 242.997 49.4475 234.28 47.8401 229.972C30.4516 221.88 42.571 208.497 50.8042 202.817C52.899 202.341 54.9459 201.698 56.9424 200.911C55.5363 207.089 70.7731 241.104 72.185 243.407C73.3144 245.249 96.9396 242.639 108.611 241.104C109.062 232.905 107.993 225.617 102.454 225.617C96.9156 225.617 88.041 202.817 95.1667 194.734C100.867 188.267 107.543 164.743 110.168 153.789C126.362 163.098 154.285 168.906 168.203 170.846C169.366 195.217 172.518 244.192 175.824 245.122C179.958 246.285 207.731 246.026 210.831 245.122C213.931 244.218 214.06 226.004 210.831 225.617C208.247 225.307 205.793 224.282 204.889 223.808C201.832 213.776 198.353 189.603 208.893 173.172C222.069 152.633 225.134 136.899 225.134 127.103C225.134 117.307 226.603 97.7151 232.97 94.7764C239.338 91.8376 263.093 96.2458 266.031 95.8784C268.97 95.5111 273.01 89.6321 277.787 84.4906Z" fill="#C2934C"/>
<path d="M208.893 173.172C222.069 152.633 225.134 136.899 225.134 127.103C225.134 117.307 226.603 97.7151 232.97 94.7764C239.338 91.8376 263.093 96.2458 266.031 95.8784C268.97 95.5111 273.01 89.6321 277.787 84.4906C281.723 80.2545 280.521 75.7599 279.746 74.0827L250.394 51.9933C243.974 38.7429 235.083 35.8856 231.441 36.1133M208.893 173.172C198.353 189.603 201.832 213.776 204.889 223.808C205.793 224.282 208.247 225.307 210.831 225.617C214.06 226.004 213.931 244.218 210.831 245.122C207.731 246.026 179.958 246.285 175.824 245.122C172.518 244.192 169.366 195.217 168.203 170.846M208.893 173.172C213.39 154.051 215.811 114.58 199.6 100.163C187.061 89.0119 180.22 87.8219 175.824 87.8219M168.203 170.846C154.285 168.906 126.362 163.098 110.168 153.789M168.203 170.846C168.203 166.502 168.203 157.009 168.203 153.789M66.3224 84.9482C30.1906 97.4131 39.8557 147.273 39.685 157.86C39.5142 168.446 15.0966 193.718 13.0475 199.182C12.3458 201.053 12.0246 206.61 11.9398 213.183M66.3224 84.9482C73.6773 84.8445 82.7594 84.6976 92.4477 84.515M66.3224 84.9482C52.5484 88.0219 25.7174 103.424 28.586 140.443C29.6106 150.973 28.3811 175.209 15.2673 187.913C12.1952 193.262 7.2288 205.806 11.9398 213.183M231.441 36.1133C231.95 26.9495 232.664 8.24614 231.441 6.74347C229.911 4.86513 223.586 4.01142 219.829 6.74347C216.824 8.92911 207.649 28.0306 203.437 37.3081C195.753 39.8694 173.214 79.8256 168.203 81.7039C166.414 82.3747 152.353 83.0024 134.462 83.5323M231.441 36.1133V49.0905M134.462 83.5323C134.462 78.6541 134.462 68.5222 134.462 67.0196C134.462 65.1413 92.4477 64.9705 92.4477 67.8733C92.4477 70.1956 92.4477 79.9354 92.4477 84.515M134.462 83.5323C121.404 83.919 106.306 84.2537 92.4477 84.515M11.9398 213.183C11.7771 225.803 12.4862 242.172 13.0475 243.407C13.9013 245.285 45.1491 243.919 48.9057 243.407C51.9109 242.997 49.4475 234.28 47.8401 229.972C30.4516 221.88 42.571 208.497 50.8042 202.817C52.899 202.341 54.9459 201.698 56.9424 200.911M110.168 153.789C107.126 152.041 104.498 150.169 102.454 148.176C96.8196 162.63 80.3387 191.689 56.9424 200.911M110.168 153.789C107.543 164.743 100.867 188.267 95.1667 194.734C88.041 202.817 96.9156 225.617 102.454 225.617C107.993 225.617 109.062 232.905 108.611 241.104C96.9396 242.639 73.3144 245.249 72.1849 243.407C70.7731 241.104 55.5363 207.089 56.9424 200.911" stroke="#383434" stroke-width="4.20506" stroke-linecap="round" stroke-linejoin="round"/>
<ellipse cx="3.45837" cy="4.7589" rx="3.45837" ry="4.7589" transform="matrix(-0.810622 0.58557 0.58557 0.810622 246.089 49.8496)" fill="#383434"/>
<circle cx="1.7382" cy="1.7382" r="1.7382" transform="matrix(-1 0 0 1 246.595 52.585)" fill="white"/>
<path d="M274.284 71.9824C273.114 73.8545 269.791 77.3179 277.654 83.3558C279.339 80.2199 281.473 72.9932 274.284 71.9824Z" fill="#383434"/>
</svg>
