<svg width="292" height="252" viewBox="0 0 292 252" fill="none" xmlns="http://www.w3.org/2000/svg">
<path d="M187.895 100.664C179.743 100.664 174.071 113.779 177.328 125.963C179.699 134.832 182.037 143.493 185.004 147.152C188.629 151.622 197.307 152.544 198.813 152.768C204.153 153.563 212.131 152.279 212.131 155.454C212.131 157.338 205.005 164.024 207.849 167.802C210.693 171.579 215.261 176.558 222.159 176.558C226.907 176.558 232.986 156.521 230.805 147.152C226.78 129.853 208.069 130.124 205.992 129.346C203.915 128.567 205.714 123.651 203.586 116.354C201.344 108.669 198.098 100.664 187.895 100.664Z" fill="#1C974D" stroke="#383434" stroke-width="4" stroke-linecap="round" stroke-linejoin="round"/>
<path d="M132.471 98.321C118.368 103.948 123.986 120.281 126.958 127.834C129.93 135.386 145.056 151.998 147.65 155.241C150.245 158.484 138.947 174.5 136.581 181.595C134.216 188.691 136.581 193.578 141.325 204.788C142.959 208.647 156.374 210.791 159.911 211.356L160.037 211.376C168.965 212.804 187.281 212.804 191.497 212.804H205.103C205.103 212.804 210.769 190.313 196.469 190.313C177.953 190.313 168.146 185.413 168.146 178.102C168.146 170.792 181.115 161.545 178.654 150.511C175.408 135.96 175.753 81.0521 132.471 98.321Z" fill="#1C974D" stroke="#383434" stroke-width="4" stroke-linecap="round" stroke-linejoin="round"/>
<path d="M207.334 80.615C203.147 81.8114 198.856 85.6302 196.119 87.3434C193.091 89.2388 189.634 91.1431 182.748 89.2388C171.853 86.2258 141.415 84.1111 129.606 84.7326C117.796 85.3542 96.0422 68.7277 77.7064 60.6475C59.3707 52.5673 27.2054 47.9057 12.7543 51.0135C-1.69676 54.1212 -0.234664 66.0808 9.18076 67.1738C20.3478 68.4701 33.4474 73.7119 46.7845 79.7602C61.0624 86.2352 102.724 119.695 110.649 134.767C118.574 149.84 146.544 162.893 180.418 159.785C214.293 156.677 212.739 133.524 215.381 133.524C218.022 133.524 225.792 122.803 227.19 117.053C228.309 112.454 238.014 98.2362 242.727 91.7024C263.823 91.4865 286.352 79.9958 288.258 78.6725C289.673 77.6892 289.935 74.596 289.827 70.9746C289.722 67.4417 290.228 63.2262 289.19 60.3367C287.184 54.7536 262.929 42.0009 249.877 35.9407C244.904 33.2057 239.932 37.0803 238.067 39.3595C218.426 39.1109 209.394 66.7596 207.334 80.615Z" fill="#1C974D"/>
<path d="M216.281 80.615C219.041 92.8573 232.855 91.8034 242.727 91.7024M242.727 91.7024C263.823 91.4865 286.352 79.9958 288.258 78.6725C289.673 77.6892 289.935 74.596 289.827 70.9746C289.722 67.4417 290.228 63.2262 289.19 60.3367C287.184 54.7536 262.929 42.0009 249.877 35.9407C244.904 33.2057 239.932 37.0803 238.067 39.3595C218.426 39.1109 209.394 66.7596 207.334 80.615C203.147 81.8114 198.856 85.6302 196.119 87.3434C193.091 89.2388 189.634 91.1431 182.748 89.2388C171.853 86.2258 141.415 84.1111 129.606 84.7326C117.796 85.3542 96.0422 68.7277 77.7064 60.6475C59.3707 52.5673 27.2054 47.9057 12.7543 51.0135C-1.69676 54.1212 -0.234664 66.0808 9.18076 67.1738C20.3478 68.4701 33.4474 73.7119 46.7845 79.7602C61.0624 86.2352 102.724 119.695 110.649 134.767C118.574 149.84 146.544 162.893 180.418 159.785C214.293 156.677 212.739 133.524 215.381 133.524C218.022 133.524 225.792 122.803 227.19 117.053C228.309 112.454 238.014 98.2362 242.727 91.7024Z" stroke="#383434" stroke-width="4" stroke-linecap="round" stroke-linejoin="round"/>
<path d="M194.895 104.663C186.743 104.663 181.071 117.778 184.328 129.962C186.699 138.831 189.037 147.492 192.004 151.151C195.629 155.621 204.307 156.543 205.813 156.767C211.153 157.562 219.131 156.278 219.131 159.453C219.131 161.337 212.005 168.023 214.849 171.801C217.693 175.578 222.261 180.557 229.159 180.557C233.907 180.557 239.986 160.52 237.805 151.151C233.78 133.852 215.069 134.123 212.992 133.345C210.915 132.566 212.714 127.65 210.586 120.353C208.344 112.668 205.098 104.663 194.895 104.663Z" fill="#1C974D" stroke="#383434" stroke-width="4" stroke-linecap="round" stroke-linejoin="round"/>
<path d="M122.471 103.321C108.368 108.948 113.986 125.281 116.958 132.834C119.93 140.386 135.056 156.998 137.65 160.241C140.245 163.484 128.947 179.5 126.581 186.595C124.216 193.691 126.581 198.578 131.325 209.788C132.959 213.647 146.374 215.791 149.911 216.356L150.037 216.376C158.965 217.804 177.281 217.804 181.497 217.804H195.103C195.103 217.804 200.769 195.313 186.469 195.313C167.953 195.313 158.146 190.413 158.146 183.102C158.146 175.792 171.115 166.545 168.654 155.511C165.408 140.96 165.753 86.0521 122.471 103.321Z" fill="#1C974D" stroke="#383434" stroke-width="4" stroke-linecap="round" stroke-linejoin="round"/>
<path d="M226.441 72.9483C223.5 72.9483 220.56 68.0473 219.458 65.5967C213.577 52.1805 234.528 42.6241 238.387 42.9917C242.246 43.3593 247.576 51.8132 247.392 52.3646C247.209 52.9159 245.371 54.9375 245.187 63.3915C245.003 71.8456 230.117 72.9482 226.441 72.9483Z" fill="#033561"/>
<path d="M234.912 64.0568C237.472 64.0568 239.28 62.5694 240.395 61.119C240.956 60.3881 241.369 59.6343 241.644 59.0051C241.782 58.69 241.889 58.396 241.964 58.1414C242.031 57.9172 242.1 57.6332 242.1 57.3734C242.1 57.1163 242.022 56.899 241.974 56.7796C241.918 56.639 241.846 56.5015 241.772 56.3754C241.625 56.1221 241.428 55.8398 241.206 55.5505C240.758 54.9684 240.151 54.2857 239.484 53.6334C238.819 52.9832 238.067 52.3364 237.325 51.8441C236.629 51.3828 235.763 50.9329 234.912 50.9329C233.537 50.9329 232.042 51.6746 230.92 52.764C229.775 53.8751 228.877 55.4805 228.877 57.3734C228.877 59.2244 229.671 60.8802 230.78 62.0663C231.874 63.2368 233.381 64.0568 234.912 64.0568Z" fill="#FFDD65" stroke="black" stroke-width="2.19076"/>
<ellipse cx="234.713" cy="57.4948" rx="0.701467" ry="2.95765" fill="#383434"/>
<path d="M289.827 70.9756C286.465 71.8491 280.455 73.2607 277.05 75.8055C271.658 79.836 259.376 84.1349 239.012 78.6734C238.401 78.5668 236.249 78.06 235.221 79.1857" stroke="#383434" stroke-width="3" stroke-linecap="round" stroke-linejoin="round"/>
<path d="M267.756 61.2754C271.458 61.7269 276.955 64.1873 271.613 66.0626" stroke="#383434" stroke-width="3" stroke-linecap="round" stroke-linejoin="round"/>
<path fill-rule="evenodd" clip-rule="evenodd" d="M190.175 98.4672C192.32 96.1008 194.757 94.2896 196.491 93.001C196.963 92.6506 197.382 92.3388 197.73 92.065C199.019 91.0491 200.416 89.8093 201.782 88.5974L201.783 88.5971L201.783 88.597L201.783 88.5967L201.783 88.5965C202.655 87.823 203.514 87.0609 204.324 86.3756C205.394 85.4702 206.529 84.7188 207.384 84.1528L207.384 84.1525L207.384 84.1524C208.524 83.3979 209.166 82.9731 208.492 82.9525C206.611 82.8952 203.761 84.7221 201.634 86.3756C198.175 89.066 190.904 93.7478 187.559 94.804C184.213 95.8602 179.155 96.7401 174.769 94.804C170.745 93.0274 152.422 89.5816 143.691 89.7999L143.286 89.8101C133.236 90.0629 109.858 90.6511 104.128 83.0109C98.32 75.2661 87.1307 70.6812 82.8309 69.986C79.0455 69.374 74.6771 66.5421 70.9079 64.0986C68.6524 62.6365 66.6116 61.3134 65.0387 60.6884C61.4414 59.259 45.0204 54.7341 42.0282 54.7341C41.2685 54.7341 40.1318 54.6432 38.8556 54.5411C35.1052 54.2412 30.1508 53.845 30.0267 55.3771C29.8865 57.1068 34.3047 57.0778 38.506 57.0503C39.0279 57.0469 39.5466 57.0435 40.0527 57.0435C42.5306 57.0435 43.2977 58.3442 44.1278 59.7519C45.1067 61.4118 46.1733 63.2204 50.2363 63.2204C51.2257 63.2204 52.2475 63.1835 53.2653 63.1467H53.2653H53.2654H53.2654C57.8826 62.98 62.4179 62.8162 63.47 66.1137C64.6061 69.6748 68.2555 77.7934 72.9747 75.2663C77.8997 72.6289 88.2883 73.5064 89.3444 81.075C90.4005 88.6435 94.6399 97.971 100.179 100.078C105.114 101.955 118.986 98.7889 125.043 96.7401C130.767 94.804 140.74 93.3959 151.653 94.804C158.834 95.7305 162.856 100.22 166.723 104.537C168.732 106.78 170.7 108.977 173.048 110.602C178.396 114.304 183.18 107.77 187.079 102.445L187.079 102.445C188.185 100.935 189.219 99.5219 190.175 98.4672ZM86.5647 81.2524C86.5647 83.5886 85.2769 85.4825 83.6883 85.4825C82.0997 85.4825 80.8119 83.5886 80.8119 81.2524C80.8119 78.9161 82.0997 77.0222 83.6883 77.0222C85.2769 77.0222 86.5647 78.9161 86.5647 81.2524ZM55.5725 67.6629C56.5098 67.5304 57.2033 66.9537 57.1214 66.3748C57.0396 65.7959 56.2134 65.434 55.2761 65.5665C54.3388 65.6991 53.6453 66.2757 53.7271 66.8546C53.809 67.4335 54.6351 67.7954 55.5725 67.6629ZM59.2788 65.0185C59.8382 65.1885 60.0686 66.0605 59.7935 66.9662C59.5183 67.872 58.8418 68.4685 58.2824 68.2986C57.723 68.1287 57.4926 67.2567 57.7677 66.3509C58.0428 65.4451 58.7194 64.8486 59.2788 65.0185ZM39.0544 62.0942C40.2395 60.8146 40.6837 59.2988 40.0464 58.7087C39.4092 58.1185 37.9319 58.6775 36.7468 59.9572C35.5617 61.2368 35.1176 62.7526 35.7548 63.3427C36.392 63.9329 37.8693 63.3739 39.0544 62.0942Z" fill="#033561"/>
</svg>
