<svg width="147" height="107" viewBox="0 0 147 107" fill="none" xmlns="http://www.w3.org/2000/svg">
<path fill-rule="evenodd" clip-rule="evenodd" d="M53.8126 103.013C61.8586 103.967 93.5937 105.028 102.096 103.013C110.598 100.997 139.451 87.0643 139.451 87.0643C138.232 75.5715 142.023 39.0264 143.951 20.4496C144.574 14.436 145.003 10.3053 145.003 9.51693C145.003 6.938 142.496 4.025 141.242 2.89087L132.606 79.2857L111.8 87.0643V66.5113C103.428 64.29 84.1629 63.6019 84.1629 63.6019C79.2016 66.4497 76.5225 67.1195 70.2909 63.6019L42.8668 66.5113V87.0643L15.5191 81.1539L6.15945 2.89087C4.78208 3.80971 2.02734 6.4213 2.02734 9.51693C2.02734 10.4201 2.54816 15.8444 3.28589 23.5279C5.07675 42.1798 8.14584 74.1445 8.14584 87.0643C8.14584 87.0643 45.7666 102.058 53.8126 103.013ZM51.7066 74.9538V88.6299L69.3105 93.5692L79.0641 90.9473L89.3517 93.5692L104.322 88.6299V73.1806C100.636 71.3376 94.7296 72.8475 88.7895 74.3661C84.7712 75.3934 80.7374 76.4247 77.3647 76.4247C73.5773 76.4247 69.7801 75.6134 66.1982 74.8481C60.5326 73.6376 55.4054 72.5421 51.7066 74.9538Z" fill="#6A4C1E"/>
<path d="M139.451 87.0643L140.303 88.8293C141.048 88.4694 141.487 87.6804 141.4 86.8576L139.451 87.0643ZM143.951 20.4496L142.001 20.2473L143.951 20.4496ZM141.242 2.89087L142.557 1.43737C142.012 0.944208 141.236 0.797536 140.549 1.05747C139.861 1.31741 139.377 1.94025 139.294 2.67071L141.242 2.89087ZM132.606 79.2857L133.293 81.1216C133.984 80.8633 134.471 80.2389 134.554 79.5059L132.606 79.2857ZM111.8 87.0643H109.84C109.84 87.7068 110.155 88.3085 110.683 88.6747C111.211 89.0409 111.885 89.1252 112.487 88.9002L111.8 87.0643ZM111.8 66.5113H113.76C113.76 65.6224 113.162 64.8448 112.303 64.6169L111.8 66.5113ZM84.1629 63.6019L84.2328 61.6431C83.8669 61.63 83.5047 61.7197 83.1871 61.902L84.1629 63.6019ZM70.2909 63.6019L71.2544 61.895C70.8991 61.6944 70.49 61.6097 70.0842 61.6528L70.2909 63.6019ZM42.8668 66.5113L42.66 64.5622C41.6632 64.668 40.9068 65.5089 40.9068 66.5113H42.8668ZM42.8668 87.0643L42.4528 88.98C43.0319 89.1052 43.6366 88.9617 44.0977 88.5896C44.5588 88.2175 44.8268 87.6568 44.8268 87.0643H42.8668ZM15.5191 81.1539L13.5729 81.3866C13.6723 82.217 14.2876 82.893 15.1051 83.0696L15.5191 81.1539ZM6.15945 2.89087L8.10561 2.65812C8.02471 1.98168 7.59837 1.39577 6.97962 1.1107C6.36086 0.825623 5.63847 0.882291 5.07174 1.26036L6.15945 2.89087ZM3.28589 23.5279L5.23694 23.3406L3.28589 23.5279ZM8.14584 87.0643H6.18581C6.18581 87.8666 6.67484 88.5879 7.42018 88.885L8.14584 87.0643ZM51.7066 88.6299H49.7465C49.7465 89.5084 50.3312 90.2797 51.1771 90.517L51.7066 88.6299ZM51.7066 74.9538L50.6361 73.3119C50.0812 73.6737 49.7465 74.2913 49.7465 74.9538H51.7066ZM69.3105 93.5692L68.781 95.4564C69.1203 95.5516 69.479 95.5535 69.8193 95.4621L69.3105 93.5692ZM79.0641 90.9473L79.5482 89.048C79.2221 88.9649 78.8802 88.9671 78.5553 89.0544L79.0641 90.9473ZM89.3517 93.5692L88.8676 95.4685C89.2298 95.5609 89.6108 95.5477 89.9658 95.4305L89.3517 93.5692ZM104.322 88.6299L104.936 90.4912C105.739 90.2261 106.282 89.4757 106.282 88.6299H104.322ZM104.322 73.1806H106.282C106.282 72.4382 105.862 71.7595 105.198 71.4275L104.322 73.1806ZM88.7895 74.3661L88.304 72.4672L88.7895 74.3661ZM66.1982 74.8481L66.6077 72.9313H66.6077L66.1982 74.8481ZM101.644 101.105C99.7237 101.561 96.3191 101.869 92.0192 102.039C87.7688 102.206 82.7902 102.233 77.8092 102.167C67.8202 102.034 57.9597 101.531 54.0435 101.066L53.5817 104.959C57.7115 105.449 67.7416 105.953 77.7572 106.086C82.7785 106.153 87.8307 106.127 92.1733 105.956C96.4664 105.787 100.217 105.472 102.548 104.92L101.644 101.105ZM139.451 87.0643C138.599 85.2992 138.599 85.2993 138.598 85.2994C138.598 85.2995 138.598 85.2996 138.598 85.2998C138.597 85.3002 138.596 85.3008 138.594 85.3016C138.59 85.3032 138.585 85.3057 138.579 85.309C138.565 85.3155 138.544 85.3254 138.517 85.3385C138.463 85.3646 138.382 85.4036 138.276 85.4546C138.064 85.5565 137.751 85.7066 137.35 85.8984C136.547 86.282 135.39 86.8326 133.974 87.4999C131.143 88.8345 127.281 90.6343 123.155 92.4962C114.81 96.2626 105.669 100.151 101.644 101.105L102.548 104.92C107.025 103.859 116.561 99.7731 124.768 96.0692C128.919 94.1958 132.801 92.3864 135.646 91.0457C137.068 90.3752 138.231 89.8216 139.04 89.4354C139.444 89.2423 139.759 89.091 139.974 88.9879C140.081 88.9363 140.163 88.8968 140.219 88.8701C140.246 88.8567 140.267 88.8466 140.282 88.8398C140.289 88.8363 140.294 88.8337 140.298 88.832C140.299 88.8311 140.301 88.8305 140.302 88.83C140.302 88.8298 140.303 88.8296 140.303 88.8295C140.303 88.8293 140.303 88.8293 139.451 87.0643ZM142.001 20.2473C141.038 29.5328 139.606 43.3353 138.567 56.2564C137.536 69.0951 136.869 81.305 137.502 87.2709L141.4 86.8576C140.814 81.3308 141.434 69.5218 142.475 56.5705C143.509 43.7016 144.936 29.9432 145.9 20.6518L142.001 20.2473ZM143.043 9.51693C143.043 9.7881 142.951 10.8887 142.76 12.832C142.576 14.7084 142.313 17.2383 142.001 20.2473L145.9 20.6518C146.212 17.6472 146.475 15.1049 146.661 13.2155C146.84 11.3931 146.963 10.0341 146.963 9.51693H143.043ZM139.927 4.34437C140.446 4.81366 141.273 5.70111 141.954 6.73846C142.665 7.82031 143.043 8.80059 143.043 9.51693H146.963C146.963 7.65433 146.087 5.88865 145.231 4.58574C144.345 3.23833 143.292 2.10221 142.557 1.43737L139.927 4.34437ZM134.554 79.5059L143.19 3.11103L139.294 2.67071L130.659 79.0656L134.554 79.5059ZM112.487 88.9002L133.293 81.1216L131.92 77.4498L111.114 85.2283L112.487 88.9002ZM109.84 66.5113V87.0643H113.76V66.5113H109.84ZM84.1629 63.6019C84.0929 65.5606 84.0929 65.5606 84.0929 65.5606C84.093 65.5606 84.0932 65.5606 84.0934 65.5606C84.0939 65.5607 84.0946 65.5607 84.0956 65.5607C84.0977 65.5608 84.101 65.5609 84.1054 65.5611C84.1141 65.5614 84.1275 65.5619 84.1453 65.5626C84.1809 65.5639 84.2344 65.5659 84.3049 65.5687C84.4458 65.5742 84.6545 65.5825 84.9235 65.594C85.4617 65.617 86.2414 65.6523 87.2036 65.7015C89.1288 65.8002 91.7815 65.9546 94.6921 66.1779C100.572 66.6289 107.31 67.3477 111.298 68.4058L112.303 64.6169C107.919 63.4536 100.838 62.7177 94.9919 62.2693C92.0397 62.0429 89.3528 61.8865 87.4041 61.7866C86.4295 61.7367 85.6386 61.7009 85.0905 61.6775C84.8165 61.6658 84.603 61.6573 84.4576 61.6516C84.385 61.6488 84.3293 61.6467 84.2915 61.6452C84.2726 61.6445 84.2582 61.644 84.2484 61.6437C84.2435 61.6435 84.2397 61.6433 84.2371 61.6432C84.2358 61.6432 84.2348 61.6432 84.2341 61.6431C84.2337 61.6431 84.2334 61.6431 84.2332 61.6431C84.233 61.6431 84.2328 61.6431 84.1629 63.6019ZM69.3274 65.3087C72.562 67.1346 75.1742 68.0529 77.7825 67.9474C80.3661 67.8428 82.6368 66.7378 85.1386 65.3017L83.1871 61.902C80.7277 63.3138 79.1781 63.9676 77.624 64.0305C76.0946 64.0924 74.2514 63.5868 71.2544 61.895L69.3274 65.3087ZM43.0736 68.4604L70.4977 65.5509L70.0842 61.6528L42.66 64.5622L43.0736 68.4604ZM44.8268 87.0643V66.5113H40.9068V87.0643H44.8268ZM15.1051 83.0696L42.4528 88.98L43.2809 85.1485L15.9331 79.2381L15.1051 83.0696ZM4.2133 3.12361L13.5729 81.3866L17.4653 80.9211L8.10561 2.65812L4.2133 3.12361ZM3.98737 9.51693C3.98737 8.54735 4.427 7.52658 5.14828 6.55911C5.86353 5.59971 6.72761 4.86798 7.24716 4.52138L5.07174 1.26036C4.21393 1.8326 3.01195 2.86609 2.00549 4.2161C1.00506 5.55803 0.0673211 7.39087 0.0673211 9.51693H3.98737ZM5.23694 23.3406C4.8679 19.497 4.55376 16.2252 4.33183 13.8011C4.1037 11.3093 3.98737 9.85298 3.98737 9.51693H0.0673211C0.0673211 10.084 0.211399 11.7915 0.42811 14.1585C0.65102 16.5933 0.966151 19.8753 1.33484 23.7153L5.23694 23.3406ZM10.1059 87.0643C10.1059 74.0238 7.02184 41.9304 5.23694 23.3406L1.33484 23.7153C3.13166 42.4292 6.18581 74.2651 6.18581 87.0643H10.1059ZM54.0435 101.066C52.2647 100.855 48.5989 99.811 43.898 98.257C39.2723 96.728 33.8408 94.7736 28.6446 92.8432C23.4513 90.9138 18.5071 89.0135 14.8603 87.5952C13.0372 86.8862 11.5391 86.2979 10.4971 85.887C9.97614 85.6816 9.56925 85.5205 9.29285 85.4109C9.15464 85.3561 9.04906 85.3141 8.97815 85.2859C8.9427 85.2719 8.91591 85.2612 8.89805 85.2541C8.88912 85.2505 8.88242 85.2479 8.87798 85.2461C8.87577 85.2452 8.87411 85.2446 8.87303 85.2441C8.87249 85.2439 8.87211 85.2438 8.87184 85.2436C8.8716 85.2436 8.8715 85.2435 8.14584 87.0643C7.42018 88.885 7.42037 88.8851 7.4207 88.8852C7.421 88.8853 7.42148 88.8855 7.42208 88.8858C7.42328 88.8862 7.42506 88.8869 7.4274 88.8879C7.43209 88.8897 7.43904 88.8925 7.44822 88.8962C7.46658 88.9035 7.49388 88.9143 7.52985 88.9286C7.6018 88.9572 7.70845 88.9996 7.84776 89.0549C8.12636 89.1653 8.53559 89.3273 9.05904 89.5338C10.1059 89.9466 11.6098 90.5371 13.4394 91.2487C17.0979 92.6715 22.0617 94.5794 27.2794 96.5178C32.4942 98.4552 37.9764 100.428 42.6676 101.979C47.2835 103.505 51.3375 104.693 53.5817 104.959L54.0435 101.066ZM53.6666 88.6299V74.9538H49.7465V88.6299H53.6666ZM69.84 91.6821L52.2361 86.7427L51.1771 90.517L68.781 95.4564L69.84 91.6821ZM78.5553 89.0544L68.8017 91.6764L69.8193 95.4621L79.5729 92.8401L78.5553 89.0544ZM89.8357 91.6699L79.5482 89.048L78.58 92.8466L88.8676 95.4685L89.8357 91.6699ZM103.708 86.7685L88.7375 91.7079L89.9658 95.4305L104.936 90.4912L103.708 86.7685ZM102.362 73.1806V88.6299H106.282V73.1806H102.362ZM89.275 76.2651C92.276 75.4978 95.1114 74.7761 97.6454 74.4575C100.216 74.1342 102.134 74.2779 103.445 74.9337L105.198 71.4275C102.824 70.2402 99.9449 70.2174 97.1563 70.568C94.3308 70.9233 91.243 71.7158 88.304 72.4672L89.275 76.2651ZM77.3647 78.3848C81.0365 78.3848 85.3347 77.2724 89.275 76.2651L88.304 72.4672C84.2077 73.5145 80.4383 74.4647 77.3647 74.4647V78.3848ZM65.7886 76.7649C69.3349 77.5226 73.3354 78.3848 77.3647 78.3848V74.4647C73.8192 74.4647 70.2254 73.7043 66.6077 72.9313L65.7886 76.7649ZM52.777 76.5956C54.1423 75.7055 55.8757 75.3871 58.1161 75.5002C60.3804 75.6144 62.9147 76.1508 65.7886 76.7649L66.6077 72.9313C63.8161 72.3349 60.954 71.7183 58.3136 71.5851C55.6493 71.4507 52.9696 71.7904 50.6361 73.3119L52.777 76.5956Z" fill="#3B2607"/>
<path d="M64.2676 83.4834C70.2901 84.3105 84.3428 84.9723 92.3736 81.0024" stroke="#3B2607" stroke-width="6" stroke-linecap="round" stroke-linejoin="round"/>
</svg>
