<svg width="147" height="107" viewBox="0 0 147 107" fill="none" xmlns="http://www.w3.org/2000/svg">
<path d="M96.2586 82.3811L96.2143 82.4128L96.172 82.4473C95.5752 82.9354 94.5572 83.4524 93.0835 83.9378C91.6353 84.4147 89.8587 84.8255 87.8386 85.1602C83.7996 85.8294 78.9098 86.1747 73.9799 86.181C69.0501 86.1873 64.1338 85.8546 60.0418 85.1882C57.9954 84.855 56.1843 84.443 54.6947 83.9604C53.2341 83.4873 52.1799 82.977 51.5164 82.4778C50.0815 81.0537 48.6563 78.5409 47.6041 75.4082C46.6443 72.5505 46.0422 69.3158 45.9959 66.1926C56.7837 69.3599 65.4399 70.8583 74.0277 70.7961C82.5932 70.7341 90.9953 69.1199 101.271 66.1789C101.177 69.1184 100.513 72.6378 99.5567 75.7357C99.0268 77.4518 98.422 78.9897 97.8055 80.1914C97.158 81.4532 96.6017 82.1355 96.2586 82.3811Z" fill="white" stroke="#383434" stroke-width="3.39227"/>
<path d="M100.864 72.6816C99.4159 74.32 90.4794 76.8084 84.2248 77.9865C83.91 78.0458 83.9353 78.4275 84.2556 78.4211C89.5299 78.3167 97.3023 76.8974 97.3023 78.3608C98.9306 76.6417 100.695 74.0119 100.864 72.6816Z" fill="#383434"/>
<path d="M46.4774 72.6816C47.9226 74.3164 55.8879 76.7975 61.9302 77.9788C62.2446 78.0402 62.2188 78.4271 61.8985 78.4199C56.8673 78.3059 50.0393 76.903 50.0393 78.3608C48.411 76.6417 46.647 74.0119 46.4774 72.6816Z" fill="#383434"/>
<path d="M42.8226 63.9008C42.9464 63.233 43.6189 62.7814 44.3611 62.8676L48.3102 63.3263C49.5899 63.4749 50.052 64.9722 49.03 65.6586L44.422 68.7533C43.4 69.4396 41.9503 68.6056 42.1637 67.4542L42.8226 63.9008Z" fill="#383434"/>
<path d="M102.968 62.4471C103.681 62.3647 104.333 62.7817 104.485 63.418L105.28 66.744C105.556 67.9 104.112 68.8002 103.061 68.1274L98.5359 65.2321C97.4845 64.5593 97.9411 63.0274 99.2376 62.8777L102.968 62.4471Z" fill="#383434"/>
<path fill-rule="evenodd" clip-rule="evenodd" d="M38.8672 92.1841C38.8672 95.9349 44.9266 103.702 49.813 104.4C54.6994 105.098 83.2625 104.691 98.0963 104.4C102.168 102.364 107.801 96.2698 107.801 92.1841V63.8988C99.4284 61.6775 80.6658 57.3564 80.6658 57.3564C75.7045 60.2043 73.0254 60.8741 66.7938 57.3564L38.8672 63.8988V92.1841ZM47.7072 74.527L51.6987 90.6948L65.3111 93.1842C71.348 89.9819 79.3056 89.9819 85.3522 93.1842L96.8065 90.6948C98.2454 84.3239 100.322 72.7855 100.322 72.7855C98.77 68.367 86.6979 69.0431 78.9866 69.4749C77.118 69.5796 75.5054 69.6699 74.3606 69.6699C73.4856 69.6699 72.3118 69.6282 70.9428 69.5797C63.1295 69.3024 48.9588 68.7997 47.7072 74.527Z" fill="#6A4C1E"/>
<path d="M98.0963 104.4L98.1347 106.36C98.4259 106.354 98.7123 106.284 98.9728 106.153L98.0963 104.4ZM107.801 63.8988H109.761C109.761 63.0099 109.163 62.2323 108.303 62.0043L107.801 63.8988ZM80.6658 57.3564L81.1056 55.4464C80.6241 55.3355 80.1185 55.4106 79.69 55.6566L80.6658 57.3564ZM66.7938 57.3564L67.7573 55.6496C67.3291 55.4078 66.8256 55.3359 66.3468 55.4481L66.7938 57.3564ZM38.8672 63.8988L38.4201 61.9904C37.5339 62.1981 36.9072 62.9885 36.9072 63.8988H38.8672ZM51.6987 90.6948L49.7958 91.1646C49.9807 91.9134 50.5874 92.4841 51.3461 92.6229L51.6987 90.6948ZM47.7072 74.527L45.7924 74.1085C45.7283 74.4016 45.7324 74.7055 45.8043 74.9968L47.7072 74.527ZM65.3111 93.1842L64.9585 95.1123C65.3922 95.1916 65.84 95.1223 66.2296 94.9157L65.3111 93.1842ZM85.3522 93.1842L84.4349 94.9163C84.8438 95.1329 85.3162 95.1978 85.7685 95.0995L85.3522 93.1842ZM96.8065 90.6948L97.2227 92.6101C97.9672 92.4483 98.5505 91.8698 98.7183 91.1266L96.8065 90.6948ZM100.322 72.7855L102.251 73.1327C102.311 72.7991 102.284 72.4556 102.172 72.1358L100.322 72.7855ZM78.9866 69.4749L79.0962 71.4319H79.0962L78.9866 69.4749ZM70.9428 69.5797L70.8734 71.5384L70.9428 69.5797ZM50.0902 102.46C49.2879 102.345 48.2855 101.908 47.1706 101.122C46.0745 100.35 44.9779 99.3154 44.0004 98.1666C43.0231 97.0183 42.2031 95.8004 41.6372 94.6882C41.0482 93.5307 40.8272 92.6687 40.8272 92.1841H36.9072C36.9072 93.5749 37.4436 95.0904 38.1434 96.4659C38.8664 97.8868 39.8666 99.3576 41.015 100.707C42.1631 102.056 43.4975 103.329 44.9119 104.326C46.3075 105.31 47.8949 106.106 49.5358 106.34L50.0902 102.46ZM98.0578 102.44C90.6456 102.586 79.8067 102.76 70.214 102.811C65.4166 102.836 60.94 102.831 57.3629 102.776C53.7297 102.72 51.1637 102.613 50.0902 102.46L49.5358 106.34C50.9055 106.536 53.7423 106.64 57.3025 106.695C60.9189 106.751 65.4263 106.756 70.2348 106.731C79.8537 106.68 90.7132 106.505 98.1347 106.36L98.0578 102.44ZM105.841 92.1841C105.841 92.7842 105.624 93.6188 105.106 94.6503C104.598 95.6609 103.86 96.7432 102.973 97.8022C101.176 99.9471 98.9521 101.781 97.2197 102.647L98.9728 106.153C101.312 104.983 103.94 102.752 105.978 100.319C107.008 99.0895 107.933 97.7549 108.608 96.4101C109.274 95.0861 109.761 93.6269 109.761 92.1841H105.841ZM105.841 63.8988V92.1841H109.761V63.8988H105.841ZM80.6658 57.3564C80.2259 59.2665 80.2259 59.2665 80.2261 59.2665C80.2262 59.2665 80.2264 59.2666 80.2267 59.2667C80.2272 59.2668 80.2281 59.267 80.2292 59.2672C80.2314 59.2677 80.2348 59.2685 80.2393 59.2696C80.2483 59.2716 80.2617 59.2747 80.2795 59.2788C80.3151 59.287 80.3681 59.2993 80.4377 59.3153C80.5769 59.3474 80.7822 59.3949 81.0465 59.456C81.5752 59.5784 82.34 59.7556 83.284 59.9753C85.1721 60.4147 87.7766 61.0237 90.6422 61.7019C96.3818 63.0604 103.141 64.6903 107.298 65.7933L108.303 62.0043C104.088 60.8859 97.2799 59.2447 91.5451 57.8873C88.6735 57.2076 86.064 56.5975 84.1725 56.1573C83.2267 55.9372 82.4603 55.7595 81.9302 55.6369C81.6651 55.5756 81.4591 55.528 81.3193 55.4957C81.2494 55.4796 81.1961 55.4673 81.1602 55.459C81.1422 55.4548 81.1286 55.4517 81.1195 55.4496C81.1149 55.4486 81.1115 55.4478 81.1092 55.4472C81.108 55.447 81.1071 55.4468 81.1066 55.4466C81.1063 55.4466 81.106 55.4465 81.1059 55.4465C81.1057 55.4464 81.1056 55.4464 80.6658 57.3564ZM65.8303 59.0633C69.0649 60.8892 71.6771 61.8075 74.2854 61.7019C76.869 61.5974 79.1397 60.4924 81.6415 59.0563L79.69 55.6566C77.2305 57.0684 75.681 57.7222 74.1269 57.7851C72.5975 57.847 70.7543 57.3414 67.7573 55.6496L65.8303 59.0633ZM39.3143 65.8072L67.2409 59.2648L66.3468 55.4481L38.4201 61.9904L39.3143 65.8072ZM40.8272 92.1841V63.8988H36.9072V92.1841H40.8272ZM53.6016 90.225L49.6101 74.0572L45.8043 74.9968L49.7958 91.1646L53.6016 90.225ZM65.6637 91.2562L52.0513 88.7668L51.3461 92.6229L64.9585 95.1123L65.6637 91.2562ZM86.2696 91.4521C79.6496 87.9461 71.0044 87.9454 64.3926 91.4527L66.2296 94.9157C71.6916 92.0183 78.9616 92.0176 84.4349 94.9163L86.2696 91.4521ZM96.3902 88.7795L84.936 91.2689L85.7685 95.0995L97.2227 92.6101L96.3902 88.7795ZM100.322 72.7855C98.3933 72.4383 98.3933 72.4383 98.3933 72.4383C98.3933 72.4384 98.3933 72.4385 98.3933 72.4387C98.3932 72.439 98.3931 72.4395 98.393 72.4402C98.3927 72.4415 98.3924 72.4435 98.3919 72.4463C98.3909 72.4517 98.3894 72.4599 98.3875 72.4708C98.3835 72.4926 98.3777 72.5251 98.3699 72.5678C98.3545 72.6534 98.3316 72.7799 98.3019 72.9432C98.2425 73.27 98.156 73.7443 98.0476 74.3335C97.831 75.512 97.5271 77.1495 97.1784 78.9853C96.4796 82.665 95.606 87.1133 94.8946 90.263L98.7183 91.1266C99.4459 87.9053 100.33 83.399 101.03 79.7168C101.38 77.8716 101.685 76.2264 101.903 75.0423C102.012 74.4503 102.099 73.9733 102.159 73.6442C102.189 73.4796 102.212 73.352 102.227 73.2654C102.235 73.2221 102.241 73.189 102.245 73.1668C102.247 73.1556 102.249 73.1472 102.25 73.1415C102.25 73.1386 102.251 73.1365 102.251 73.135C102.251 73.1343 102.251 73.1337 102.251 73.1333C102.251 73.1331 102.251 73.133 102.251 73.1329C102.251 73.1328 102.251 73.1327 100.322 72.7855ZM79.0962 71.4319C82.9831 71.2142 87.7906 70.9483 91.81 71.2653C93.8262 71.4243 95.511 71.7217 96.7302 72.1787C97.9905 72.6512 98.3705 73.143 98.4731 73.4352L102.172 72.1358C101.498 70.2188 99.7869 69.1381 98.1061 68.5081C96.3842 67.8627 94.2779 67.5277 92.1182 67.3574C87.7856 67.0157 82.7015 67.3038 78.877 67.518L79.0962 71.4319ZM74.3606 71.6299C75.5736 71.6299 77.252 71.5351 79.0962 71.4319L78.877 67.518C76.9839 67.624 75.4372 67.7098 74.3606 67.7098V71.6299ZM70.8734 71.5384C72.2279 71.5865 73.4426 71.6299 74.3606 71.6299V67.7098C73.5286 67.7098 72.3957 67.6699 71.0123 67.6209L70.8734 71.5384ZM49.6221 74.9454C49.7488 74.3655 50.234 73.7062 51.5913 73.0771C52.9427 72.4507 54.8379 72.0162 57.0956 71.748C61.5945 71.2134 66.935 71.3987 70.8734 71.5384L71.0123 67.6209C67.1373 67.4834 61.4857 67.2787 56.6331 67.8553C54.215 68.1426 51.8445 68.639 49.9428 69.5205C48.0469 70.3992 46.2914 71.8248 45.7924 74.1085L49.6221 74.9454Z" fill="#3B2607"/>
</svg>
