<svg width="175" height="252" viewBox="0 0 175 252" fill="none" xmlns="http://www.w3.org/2000/svg">
<path d="M165.912 79.39L158.388 76.098C155.723 74.0603 151.213 70.1296 150.394 64.8124C149.933 61.8219 141.553 60.4862 138.168 60.1101C133.935 59.6398 140.048 42.2408 133.465 40.3599C126.882 38.4789 118.276 45.8883 115.174 58.9509C111.908 59.9195 105.279 62.448 104.887 64.8124C100.043 63.3374 89.5057 61.2723 86.1094 64.8124C83.6413 67.385 86.0512 82.4826 89.4927 95.9552C90.7869 101.022 94.5272 114.384 100.3 121.25L45.7789 108.768C38.6763 105.654 33.3966 87.3699 38.7972 77.769C43.4693 69.4632 60.8799 62.6468 67.0007 51.7258C75.1937 37.1073 71.0067 15.7977 50.9723 6.69618C31.4763 -2.16077 17.102 2.76289 15.8983 13.7218C15.4006 18.2534 20.555 21.9618 30.6938 24.9876C45.4916 29.4038 45.4916 37.6837 45.4916 40.9565C45.4916 46.9727 35.3416 51.3327 27.9959 54.8459C20.6502 58.359 12.3827 67.252 13.9796 85.3502C15.4309 101.798 20.7968 103.037 15.0819 117.405C10.5101 128.9 10.6733 152.239 11.3265 162.471C8.6051 167.315 3.16237 177.689 3.16237 180.432C3.16237 183.175 2.50925 212.816 2.18268 227.294L35.3288 232.845L38.5128 230.07C41.6969 229.863 47.4199 228.145 49.2422 226.262C50.4464 225.019 50.4464 219.503 50.4464 212.925C50.4464 211.256 45.196 206.847 42.5201 205.904C44.1214 201.8 48.8332 189.485 53.3192 184.442C65.2194 187.153 81.9236 189.796 88.5586 186.637C91.6066 190.61 97.7024 201.43 97.7024 212.925C97.7024 227.294 95.2532 239.377 99.1719 242.316C102.307 244.667 122.14 248.085 131.665 249.5L147.312 236.597L156.81 228.763V215.211C150.711 212.532 139.337 204.566 142.632 194.132C146.751 181.089 157.277 160.837 155.675 152.256C154.074 143.675 147.895 127.428 151.213 121.25C154.531 115.071 156.476 111.868 160.366 111.868C164.256 111.868 182.326 96.2246 165.912 79.39Z" fill="#524F4F"/>
<path d="M104.887 64.8124C105.279 62.448 111.908 59.9195 115.174 58.9509C118.276 45.8883 126.882 38.4789 133.465 40.3599C140.048 42.2408 133.935 59.6398 138.168 60.1101C141.553 60.4862 149.933 61.8219 150.394 64.8124C151.213 70.1296 155.723 74.0603 158.388 76.098L165.912 79.39C182.326 96.2246 164.256 111.868 160.366 111.868C156.476 111.868 154.531 115.071 151.213 121.25C147.895 127.428 154.074 143.675 155.675 152.256C157.277 160.837 146.751 181.089 142.632 194.132C139.337 204.566 150.711 212.532 156.81 215.211V228.763L147.312 236.597M104.887 64.8124C100.043 63.3374 89.5057 61.2723 86.1094 64.8124C83.6413 67.385 86.0512 82.4826 89.4927 95.9552C90.7869 101.022 94.5272 114.384 100.3 121.25L45.7789 108.768C38.6763 105.654 33.3966 87.3699 38.7972 77.769C43.4693 69.4632 60.8799 62.6468 67.0007 51.7258C75.1937 37.1072 71.0067 15.7977 50.9723 6.69618C31.4763 -2.16077 17.102 2.76289 15.8983 13.7218C15.4006 18.2534 20.555 21.9618 30.6938 24.9876C45.4916 29.4038 45.4916 37.6837 45.4916 40.9565C45.4916 46.9727 35.3416 51.3327 27.9959 54.8459C20.6502 58.359 12.3827 67.252 13.9796 85.3502C15.4309 101.798 20.7968 103.037 15.0819 117.405C10.5101 128.9 10.6733 152.239 11.3265 162.471C8.6051 167.315 3.16237 177.689 3.16237 180.432C3.16237 183.175 2.50924 212.816 2.18268 227.294L35.3288 232.845L38.5128 230.07M104.887 64.8124C105.791 65.5332 107.005 66.8415 107.654 67.7059M147.312 236.597L131.665 249.5C122.14 248.085 102.307 244.667 99.1719 242.316C95.2532 239.377 97.7024 227.294 97.7024 212.925C97.7024 201.43 91.6066 190.61 88.5586 186.637C81.9236 189.796 65.2194 187.153 53.3192 184.442M147.312 236.597V224.406C143.442 222.103 135.704 217.04 135.704 215.211C135.704 212.925 133.703 192.484 138.168 182.555M53.3192 184.442C50.4595 183.79 47.8773 183.135 45.7789 182.555C41.0437 182.881 31.4101 201.659 30.757 205.904C30.1038 210.149 39.9007 212.109 41.6968 215.211C43.1337 217.693 42.2955 224.3 41.6968 227.294L38.5128 230.07M53.3192 184.442C48.8332 189.485 44.1214 201.8 42.5201 205.904C45.196 206.847 50.4464 211.256 50.4464 212.925C50.4464 219.503 50.4464 225.019 49.2422 226.262C47.4199 228.145 41.6969 229.863 38.5128 230.07" stroke="#383434" stroke-width="4" stroke-linecap="round" stroke-linejoin="round"/>
<path d="M145.32 180.003C147.725 179.847 151.497 167.558 153.498 161.581C154.329 159.097 154.708 156.488 154.641 154.283C154.157 146.281 151.145 141.51 149.585 141.05C146.156 140.038 142.228 140.883 140.191 152.814C138.154 164.744 142.314 180.197 145.32 180.003Z" fill="white"/>
<ellipse cx="8.47612" cy="12.3211" rx="8.47612" ry="12.3211" transform="matrix(-1 0 0 1 171.533 81.6299)" fill="white"/>
<path d="M159.802 82.6102C160.76 81.4868 163.695 80.1334 165.255 80.3965C166.94 82.2069 168.654 83.9207 168.726 85.2733C168.707 86.1375 168.128 87.956 165.963 88.3167C163.258 88.7676 158.666 83.9422 159.802 82.6102Z" fill="#F4AFAF"/>
<path d="M162.424 102.339C167.363 101.163 168.104 94.4712 167.54 91.041C167.785 93.4421 170.327 98.5455 171.68 98.6631" stroke="#383434" stroke-width="3.44626" stroke-linecap="round" stroke-linejoin="round"/>
<ellipse cx="5.41377" cy="6.02721" rx="5.41377" ry="6.02721" transform="matrix(-0.8484 0.529356 0.529356 0.8484 138.567 75.8477)" fill="#383434"/>
<ellipse cx="2.22818" cy="2.48066" rx="2.22818" ry="2.48066" transform="matrix(-0.8484 0.529356 0.529356 0.8484 136.273 79.376)" fill="#D9D9D9"/>
</svg>
