<svg width="246" height="210" viewBox="0 0 246 210" fill="none" xmlns="http://www.w3.org/2000/svg">
<path d="M7.47076 125.193C13.9809 114.891 37.4301 121.562 48.341 126.185L90.4729 103.321C118.965 39.4784 178.904 27.3844 205.312 29.3178C207.703 26.6669 214.01 21.5932 220.12 22.5055C227.758 23.6459 242.42 58.0935 241.019 60.985C239.898 63.2981 231.32 67.8063 227.172 69.7712C210.253 101.862 163.157 122.761 141.723 129.199C136.216 139.43 120.272 147.744 117.078 147.39C114.523 147.107 110.651 135.585 109.035 129.859C108.954 129.57 108.026 128.906 104.954 128.566C101.883 128.226 75.7111 144.877 63.0089 153.244C60.3404 170.966 46.6598 189.235 41.3862 189.004C37.1673 188.82 29.3303 164.942 25.9392 153.026C20.2605 148.158 11.2608 132.442 7.47076 125.193Z" fill="#29AEE3"/>
<path d="M48.341 126.185C37.4301 121.562 13.9809 114.891 7.47076 125.193C11.2608 132.442 20.2605 148.158 25.9392 153.026C29.3303 164.942 37.1673 188.82 41.3862 189.004C46.6598 189.235 60.3404 170.966 63.0089 153.244M48.341 126.185L90.4729 103.321C118.965 39.4784 178.904 27.3844 205.312 29.3178M48.341 126.185C40.0643 130.676 29.5858 146.916 32.5102 153.754C34.8498 159.224 53.8175 155.693 63.0089 153.244M63.0089 153.244C75.7111 144.877 101.883 128.226 104.954 128.566C108.026 128.906 108.954 129.57 109.035 129.859M109.035 129.859C110.651 135.585 114.523 147.107 117.078 147.39C120.272 147.744 136.216 139.43 141.723 129.199M109.035 129.859C114.687 127.913 129.137 125.056 141.723 129.199M141.723 129.199C163.157 122.761 210.253 101.862 227.172 69.7712M227.172 69.7712C231.32 67.8063 239.898 63.2981 241.019 60.985C242.42 58.0935 227.758 23.6459 220.12 22.5055C214.01 21.5932 207.703 26.6669 205.312 29.3178M227.172 69.7712C227.898 63.2115 212.902 40.0691 205.312 29.3178" stroke="#383434" stroke-width="4" stroke-linejoin="round"/>
<path d="M85.4079 65.5123C84.9394 69.7452 96.4767 81.3446 102.304 86.6152C117.493 60.2513 149.752 41.3931 163.983 35.2595C151.181 29.947 130.795 35.9673 123.154 39.0166C115.513 42.0658 85.9934 60.2212 85.4079 65.5123Z" fill="#29AEE3" stroke="#383434" stroke-width="4" stroke-linejoin="round"/>
<path d="M174.01 120.603C169.656 122.555 161.37 116.039 153.191 110.751C150.594 109.036 152.499 106.509 153.777 105.46C159.247 100.028 173.654 98.1663 180.174 97.9143C182.659 97.459 187.57 97.5158 187.337 101.385C187.045 106.222 178.365 118.651 174.01 120.603Z" fill="#29AEE3" stroke="#383434" stroke-width="4"/>
<circle cx="185.637" cy="53.2253" r="7.27649" transform="rotate(6.31755 185.637 53.2253)" stroke="#383434" stroke-width="4"/>
<path opacity="0.1" d="M135.452 95.5779C140.361 103.577 145.552 109.319 145.552 109.319C139.837 112.826 131.225 109.184 126.315 101.185C121.406 93.1858 122.06 83.8581 127.774 80.3509C127.774 80.3509 130.543 87.5786 135.452 95.5779Z" fill="#383434"/>
<path opacity="0.1" d="M122.189 103.368C126.186 109.879 130.411 114.553 130.411 114.553C125.759 117.408 118.748 114.444 114.751 107.932C110.755 101.42 111.287 93.8272 115.939 90.9722C115.939 90.9722 118.193 96.8559 122.189 103.368Z" fill="#383434"/>
<path opacity="0.1" d="M108.141 110.377C111.067 115.145 114.161 118.567 114.161 118.567C110.754 120.658 105.621 118.487 102.695 113.719C99.7686 108.951 100.158 103.391 103.564 101.301C103.564 101.301 105.215 105.609 108.141 110.377Z" fill="#383434"/>
<path opacity="0.1" d="M181.176 77.8836C189.658 82.7754 197.274 85.4573 197.274 85.4573C193.779 91.5167 184.07 92.4632 175.589 87.5714C167.107 82.6795 163.065 73.8017 166.559 67.7423C166.559 67.7423 172.695 72.9917 181.176 77.8836Z" fill="#383434"/>
</svg>
