<svg width="292" height="281" viewBox="0 0 292 281" fill="none" xmlns="http://www.w3.org/2000/svg">
<path d="M32.2291 167.65C38.0687 156.954 61.8957 162.115 73.0793 166.032L113.667 140.528C138.028 74.9971 197.074 59.1039 223.551 59.3486C225.767 56.5507 231.739 51.0849 237.894 51.6055C245.589 52.2564 262.419 85.6985 261.205 88.6734C260.234 91.0534 251.962 96.0995 247.947 98.3251C233.11 131.43 187.443 155.291 166.463 163.083C161.621 173.644 146.239 182.958 143.029 182.809C140.461 182.69 135.863 171.438 133.884 165.827C133.785 165.544 132.816 164.941 129.729 164.797C126.643 164.654 101.586 182.94 89.4436 192.101C87.9111 209.957 75.4238 229.061 70.1462 229.167C65.9242 229.252 56.5799 205.923 52.4355 194.248C46.4578 189.752 36.4738 174.642 32.2291 167.65Z" fill="#29AEE3"/>
<path d="M73.0793 166.032C61.8957 162.115 38.0687 156.954 32.2291 167.65C36.4738 174.642 46.4578 189.752 52.4355 194.248C56.5799 205.923 65.9242 229.252 70.1462 229.167C75.4238 229.061 87.9111 209.957 89.4436 192.101M73.0793 166.032L113.667 140.528C138.028 74.9971 197.074 59.1039 223.551 59.3486M73.0793 166.032C65.106 171.042 55.6849 187.918 59.0396 194.555C61.7233 199.865 80.4271 195.131 89.4436 192.101M89.4436 192.101C101.586 182.94 126.643 164.654 129.729 164.797C132.816 164.941 133.785 165.544 133.884 165.827M133.884 165.827C135.863 171.438 140.461 182.69 143.029 182.809C146.239 182.958 161.621 173.644 166.463 163.083M133.884 165.827C139.4 163.524 153.638 159.751 166.463 163.083M166.463 163.083C187.443 155.291 233.11 131.43 247.947 98.3251M247.947 98.3251C251.962 96.0995 260.234 91.0534 261.205 88.6734C262.419 85.6985 245.589 52.2564 237.894 51.6055C231.739 51.0849 225.767 56.5507 223.551 59.3486M247.947 98.3251C248.253 91.7325 231.811 69.5939 223.551 59.3486" stroke="#383434" stroke-width="4" stroke-linejoin="round"/>
<path d="M106.2 103.119C106.003 107.373 118.257 118.213 124.408 123.101C137.884 95.8218 168.875 74.9441 182.685 67.9151C169.571 63.4301 149.611 70.7387 142.18 74.2692C134.749 77.7997 106.447 97.8013 106.2 103.119Z" fill="#29AEE3" stroke="#383434" stroke-width="4" stroke-linejoin="round"/>
<path d="M198.137 152.445C193.915 154.672 185.23 148.697 176.731 143.942C174.03 142.396 175.77 139.753 176.978 138.624C182.091 132.855 196.35 130.077 202.84 129.41C205.291 128.797 210.196 128.54 210.21 132.417C210.227 137.262 202.358 150.219 198.137 152.445Z" fill="#29AEE3" stroke="#383434" stroke-width="4"/>
<circle cx="205.441" cy="84.4626" r="7.27649" transform="rotate(2.65988 205.441 84.4626)" stroke="#383434" stroke-width="4"/>
<path opacity="0.1" d="M158.06 129.931C163.469 137.601 169.015 143 169.015 143C163.536 146.865 154.709 143.78 149.299 136.11C143.89 128.44 143.947 119.09 149.426 115.225C149.426 115.225 152.651 122.262 158.06 129.931Z" fill="#383434"/>
<path opacity="0.1" d="M145.322 138.55C149.725 144.793 154.24 149.188 154.24 149.188C149.779 152.334 142.594 149.823 138.19 143.579C133.787 137.336 133.833 129.724 138.293 126.578C138.293 126.578 140.918 132.306 145.322 138.55Z" fill="#383434"/>
<path opacity="0.1" d="M131.749 146.442C134.974 151.013 138.28 154.231 138.28 154.231C135.013 156.535 129.752 154.696 126.528 150.124C123.303 145.553 123.337 139.979 126.603 137.676C126.603 137.676 128.525 141.87 131.749 146.442Z" fill="#383434"/>
<path opacity="0.1" d="M202.563 109.356C211.34 113.697 219.111 115.887 219.111 115.887C216.01 122.157 206.381 123.721 197.605 119.38C188.829 115.039 184.228 106.438 187.329 100.168C187.329 100.168 193.787 105.015 202.563 109.356Z" fill="#383434"/>
</svg>
