<svg width="258" height="225" viewBox="0 0 258 225" fill="none" xmlns="http://www.w3.org/2000/svg">
<path d="M52.418 116.96C46.4552 114.188 56.1182 118.623 43.2205 111.711C42.2091 86.1377 56.2967 25.1496 120.791 23.0692C201.409 20.4686 212.243 91.9567 211.81 111.71C211.81 111.71 206.546 117.86 201.304 119.675C196.061 121.49 195.058 121.255 186.474 117.244C177.889 113.232 163.227 106.423 129.209 106.423C91.9235 106.423 82.4236 113.85 69.6946 118.376C64.2419 120.314 61.2888 121.085 52.418 116.96Z" fill="#1776CF"/>
<path d="M43.2205 111.711C56.1182 118.623 46.4552 114.188 52.418 116.96C61.2888 121.085 64.2419 120.314 69.6946 118.376C82.4236 113.85 91.9235 106.423 129.209 106.423C163.227 106.423 177.889 113.232 186.474 117.244C195.058 121.255 196.061 121.49 201.304 119.675C206.546 117.86 211.81 111.71 211.81 111.71M43.2205 111.711C42.2091 86.1377 56.2967 25.1496 120.791 23.0692C201.409 20.4686 212.243 91.9567 211.81 111.71M43.2205 111.711C58.1051 103.998 84.804 91.2677 129.209 91.2677C177.207 91.2677 207.738 109.461 211.81 111.71" stroke="#033561" stroke-width="5.95141"/>
</svg>
