<svg width="227" height="308" viewBox="0 0 227 308" fill="none" xmlns="http://www.w3.org/2000/svg">
<path d="M91.3534 68.5049C103.155 75.0853 125.26 79.237 143.543 60.9663C143.543 60.9663 164.153 61.672 166.78 73.1946C166.78 85.7269 177.661 90.145 182.502 101.148C187.344 112.151 176.617 113.342 182.502 129.004C186.656 140.057 176.617 152.891 176.617 152.891C176.617 152.891 156.422 174.633 157.942 192.793C159.461 210.953 177.608 213.772 166.78 234.379C155.952 254.985 173.971 265.324 153.01 289.633C156.199 299.22 173.651 292.998 182.502 289.633C197.879 283.787 216.634 257.804 212.095 234.379C207.555 210.953 230.984 199.207 220.266 168.262C213.02 147.339 222.71 133.305 212.095 117.232C204.977 106.454 206.52 85.9795 197.795 60.9663C190.814 40.9558 166.78 9.75608 146.388 18.9712C139.063 4.47551 112.155 4.47592 102.188 4.47607L102.092 4.47608C92.2033 4.47608 62.9929 4.47608 56.0125 24.38C51.8645 36.2076 46.7808 28.3447 35.728 43.4689C24.6753 58.593 26.52 70.597 24.1932 87.4663C22.7644 97.8256 3.88184 118.199 3.88184 133.305C3.88184 148.41 10.3724 152.883 8.77108 168.262C7.55245 179.965 3.88269 186.414 3.8823 200.532C3.88191 214.649 12.6842 225.479 19.161 234.379C25.4481 243.018 25.25 250.59 29.2544 261.268C39.7249 289.19 83.2096 306.135 91.3534 303.226C99.4972 300.318 67.0985 277.012 67.0985 252.109C67.0985 243.52 77.8341 229.095 77.8341 211.644C77.8341 193.484 61.6227 175.705 56.0125 168.262C44.1507 152.524 51.7612 146.203 56.0125 133.305C60.2638 120.406 45.4292 110.584 51.7612 101.148C56.2758 94.42 59.8537 91.9009 59.8537 80.2029C59.8537 68.5049 77.8341 60.9663 91.3534 68.5049Z" fill="#F0B84B"/>
<path d="M143.543 60.9663C125.26 79.237 103.155 75.0853 91.3534 68.5049C77.8341 60.9663 59.8537 68.5049 59.8537 80.2029C59.8537 91.9009 56.2758 94.42 51.7612 101.148C45.4292 110.584 60.2638 120.406 56.0125 133.305C51.7612 146.203 44.1507 152.524 56.0125 168.262C61.6228 175.705 77.8341 193.484 77.8341 211.644C77.8341 229.095 67.0985 243.52 67.0985 252.109C67.0985 277.012 99.4972 300.318 91.3534 303.226C83.2097 306.135 39.7249 289.19 29.2544 261.268C25.25 250.59 25.4481 243.018 19.161 234.379C12.6842 225.479 3.88191 214.649 3.8823 200.532C3.88269 186.414 7.55245 179.965 8.77108 168.262C10.3724 152.883 3.88184 148.41 3.88184 133.305C3.88184 118.199 22.7644 97.8256 24.1932 87.4663C26.52 70.597 24.6753 58.593 35.728 43.4689C46.7808 28.3447 51.8645 36.2076 56.0125 24.38C62.9929 4.47608 92.2033 4.47608 102.092 4.47608C111.981 4.47608 139.039 4.42874 146.388 18.9712M143.543 60.9663C143.543 60.9663 164.153 61.672 166.78 73.1946C166.78 85.7269 177.661 90.145 182.502 101.148C187.344 112.151 176.617 113.342 182.502 129.004C186.656 140.057 176.617 152.891 176.617 152.891C176.617 152.891 156.422 174.633 157.942 192.793C159.461 210.953 177.608 213.772 166.78 234.379C155.952 254.985 173.971 265.324 153.01 289.633C156.199 299.22 173.651 292.998 182.502 289.633C197.879 283.787 216.634 257.804 212.095 234.379C207.555 210.953 230.984 199.207 220.266 168.262C213.02 147.339 222.71 133.305 212.095 117.232C204.977 106.454 206.52 85.9795 197.795 60.9663C190.814 40.9558 166.78 9.75608 146.388 18.9712M143.543 60.9663C145.425 59.0862 153.425 49.0828 139.811 44.8301C136.801 43.4125 129.278 41.4727 120.184 43.4689M146.388 18.9712C149.825 22.0434 153.416 28.0563 153.01 31.7138M31.1932 221.15C32.6974 235.332 49.8566 247.901 52.4292 265.053M53.7612 196.532C56.5954 199.294 61.4135 206.606 58.0125 213.755M114.227 24.38C103.776 22.4525 81.8662 21.2207 77.8341 31.7138M190.56 226.867C202.116 254.052 180.711 268.973 176.617 277.454M166.78 50.2402C172.021 53.0966 182.502 61.6865 182.502 73.1946M31.1932 113.678C26.8329 121.077 22.3461 128.854 24.1932 139.214C26.3395 151.251 34.3156 162.033 29.2544 168.262M190.56 160.522C183.95 165.983 171.908 179.268 176.617 188.719M206.317 179.311C210.587 187.246 209.219 196.532 201.831 200.532" stroke="#B27A0D" stroke-width="7" stroke-linecap="round" stroke-linejoin="round"/>
</svg>
