<svg width="211" height="163" viewBox="0 0 211 163" fill="none" xmlns="http://www.w3.org/2000/svg">
<g clip-path="url(#clip0_2830_938)">
<path d="M25.0041 160.009L13.6853 154.99C9.1449 151.257 7.53785 143.639 7.39861 135.507C7.30578 130.086 7.86524 124.436 8.64282 119.556C9.10669 116.645 9.64819 114.008 10.1751 111.856C5.97481 111.016 7.28741 96.6302 8.46875 89.5421C7.89987 88.667 6.05333 86.4969 3.21818 84.8167C-0.325763 82.7166 14.3753 63.4213 16.8692 60.7961C19.363 58.1709 9.78111 54.4956 6.76212 48.9827C3.74314 43.4698 15.1628 34.8066 16.8692 37.1693C18.5755 39.532 28.1575 37.3005 33.8017 37.1693C38.3171 37.0643 53.1845 25.2247 60.0538 19.3181C69.0845 -0.108429 93.2188 1.77284 104.157 5.14179C106.345 5.31685 113.713 5.95574 125.684 7.11083C140.648 8.5547 147.211 29.5564 147.998 32.7067C148.628 35.2269 153.161 35.8569 155.349 35.857C169.919 29.0314 187.245 44.3891 188.82 47.5393C189.542 47.9261 190.252 48.6262 190.942 49.565C194.363 51.7047 200.72 53.3212 204.571 54.2334C209.559 55.4147 208.378 67.6221 208.378 70.116C208.378 72.3888 199.875 72.6995 199.46 74.7236C199.503 74.9434 199.544 75.1579 199.583 75.3666C201.027 77.9918 199.583 83.3735 199.583 87.5739C199.583 90.9341 195.908 92.1241 194.07 92.299C196.039 95.318 192.758 107.525 192.102 109.494C191.577 111.069 189.101 111.375 187.929 111.332C185.595 113.563 187.929 136.491 187.929 142.459C187.929 148.426 176.591 147.829 171.221 147.232C168.197 146.896 165.93 141.453 164.526 135.802C163.437 131.415 162.867 126.904 162.867 124.557C162.867 119.186 168.834 101.881 162.867 101.881C156.899 101.881 150.932 95.3172 143.175 95.3172C135.417 95.3172 109.758 98.8974 99.6137 101.881C89.4693 104.865 74.5512 101.881 63.8101 95.3172C55.2172 90.0662 41.1345 97.5052 35.1672 101.881C34.9683 106.058 34.6898 115.725 35.1672 120.977C35.6147 125.899 32.706 130.822 29.4615 136.5C28.3799 138.393 27.2609 140.37 26.2165 142.459C25.2573 144.377 24.7341 146.375 24.5085 148.318C23.9483 153.144 24.7059 156.427 25.0041 160.009Z" fill="#362424"/>
<path d="M35.1672 101.881C34.9683 106.058 34.6898 115.725 35.1672 120.977C35.6147 125.899 32.706 130.822 29.4615 136.5M35.1672 101.881C41.1345 97.5052 55.2172 90.0662 63.8101 95.3172C74.5512 101.881 89.4693 104.865 99.6137 101.881C109.758 98.8974 135.417 95.3172 143.175 95.3172C150.932 95.3172 156.899 101.881 162.867 101.881M35.1672 101.881C22.9234 96.631 13.4042 106.344 10.1751 111.856M162.867 101.881C168.834 101.881 162.867 119.186 162.867 124.557C162.867 126.904 163.437 131.415 164.526 135.802M162.867 101.881C169.174 101.816 183.016 103.616 187.929 111.332M187.929 111.332C185.595 113.563 187.929 136.491 187.929 142.459C187.929 148.426 176.591 147.829 171.221 147.232C168.197 146.896 165.93 141.453 164.526 135.802M187.929 111.332C189.101 111.375 191.577 111.069 192.102 109.494C192.758 107.525 196.039 95.318 194.07 92.299M194.07 92.299C195.908 92.1241 199.583 90.9341 199.583 87.5739C199.583 83.3735 201.027 77.9918 199.583 75.3666M194.07 92.299C194.07 83.2992 171.466 71.4431 160.164 66.64M199.583 75.3666C198.14 72.7414 208.378 72.61 208.378 70.116C208.378 67.6221 209.559 55.4147 204.571 54.2334C199.583 53.0521 190.395 50.6896 188.82 47.5393M199.583 75.3666C198.036 67.1836 193.717 50.1619 188.82 47.5393M188.82 47.5393C187.245 44.3891 169.919 29.0314 155.349 35.857C153.161 35.8569 148.628 35.2269 147.998 32.7067C147.211 29.5564 140.648 8.5547 125.684 7.11083C113.713 5.95574 106.345 5.31685 104.157 5.14179C93.2188 1.77284 69.0845 -0.108429 60.0538 19.3181C53.1845 25.2247 38.3171 37.0643 33.8017 37.1693C28.1575 37.3005 18.5755 39.532 16.8692 37.1693C15.1628 34.8066 3.74314 43.4698 6.76212 48.9827C9.78111 54.4956 19.363 58.1709 16.8692 60.7961C14.3753 63.4213 -0.325764 82.7166 3.21818 84.8167C6.05333 86.4969 7.89987 88.667 8.46875 89.5421M8.46875 89.5421C7.28741 96.6302 5.97481 111.016 10.1751 111.856M8.46875 89.5421C9.75112 82.8063 16.0718 69.6005 31.3892 60.1491M10.1751 111.856C9.64819 114.008 9.10669 116.645 8.64282 119.556M47.0367 53.1368C46.5866 57.0377 47.3068 64.5695 53.7883 63.4892C61.8903 62.1389 90.247 65.5897 92.9477 54.9372C102.65 54.5871 123.315 54.307 128.356 55.9874M47.0367 53.1368C41.0041 54.995 35.8202 57.415 31.3892 60.1491M47.0367 53.1368C49.0894 49.2298 51.9731 44.6231 55.5527 39.965M128.356 55.9874C134.658 58.0879 140.359 74.2918 156.263 70.3909L160.164 66.64M128.356 55.9874C131.69 50.8512 137.068 39.1672 131.912 33.5208M160.164 66.64C159.748 62.3887 160.083 52.6168 164.747 47.5393M113.194 17.1035C89.3045 6.5923 68.1322 23.5954 55.5527 39.965M72.5337 39.965C82.5068 33.7254 106.289 22.0133 121.632 25.082M164.526 135.802C168.369 137.334 176.373 138.445 177.643 130.631M29.4615 136.5C28.3799 138.393 27.2609 140.37 26.2165 142.459C25.2573 144.377 24.7341 146.375 24.5085 148.318M29.4615 136.5C23.4526 135.26 10.8763 130.134 8.64282 119.556M8.64282 119.556C7.86524 124.436 7.30578 130.086 7.39861 135.507M24.5085 148.318C23.9483 153.144 24.7059 156.427 25.0041 160.009L13.6853 154.99C9.1449 151.257 7.53785 143.639 7.39861 135.507M24.5085 148.318C19.199 147.26 8.3437 143.217 7.39861 135.507M31.3892 60.1491C28.9332 55.7675 25.9774 46.3003 33.8017 43.4847C43.5822 39.965 51.0516 39.965 55.5527 39.965M104.157 47.5393C109.565 46.3839 120.631 43.2515 121.632 39.965M177.643 51.2237C181.368 55.7709 188.82 65.9155 188.82 70.116" stroke="#1E1404" stroke-width="5" stroke-linecap="round" stroke-linejoin="round"/>
<path d="M63.8108 95.3172C55.2179 90.0662 41.1352 97.5051 35.1679 101.881C22.9241 96.6309 13.4049 106.344 10.1758 111.856C5.97549 111.016 7.79709 94.3404 8.46943 89.5421C8.46943 60.6315 47.0374 53.1367 47.0374 53.1367C46.5873 57.0376 47.3075 64.5694 53.789 63.4892C61.891 62.1389 90.2477 65.5897 92.9484 54.9371C102.651 54.5871 123.316 54.307 128.357 55.9874C134.658 58.0879 140.36 74.2918 156.263 70.3908L160.164 66.6399C171.467 71.443 194.071 83.2991 194.071 92.299C196.04 95.3179 192.759 107.525 192.102 109.494C191.577 111.069 189.102 111.375 187.93 111.332C183.017 103.616 169.175 101.816 162.867 101.881C156.9 101.881 150.933 95.3172 143.175 95.3172C135.418 95.3172 109.759 98.8973 99.6144 101.881C89.47 104.865 74.5519 101.881 63.8108 95.3172Z" fill="#1776CF" stroke="#1E1404" stroke-width="5"/>
</g>
<defs>
<clipPath id="clip0_2830_938">
<rect width="211" height="163" fill="white"/>
</clipPath>
</defs>
</svg>
